<svg width="518" height="392" viewBox="0 0 518 392" xmlns="http://www.w3.org/2000/svg"><title>hp_illoAsset 6</title><g fill="none" fill-rule="evenodd"><path d="M484.018 30.43l14.286 1.278c-.84 22.355-1.68 44.659-2.563 67.039l-12.37 1.47c-.118-.168-.236-.328-.345-.496a74874.349 74874.349 0 0 0-30.75-47.062 1.597 1.597 0 0 1-.286-1.126c.27-2.381.53-4.76.782-7.135.218-2.025.428-4.059.647-6.093.252-2.403.52-4.798.773-7.194l.53-4.899c.01-.102.028-.203.05-.303.555-.126.555-.126.84.395A8166.19 8166.19 0 0 1 470 51.054l10.765 18.59c.097.19.239.354.412.479.95-13.203 1.891-26.422 2.84-39.692z" fill="#00303C" style="mix-blend-mode:multiply"/><path d="M421.417 69.123l28.951-.21c2.64 17.883 5.278 35.75 7.934 53.726l-46.768-3.555c3.302-16.732 6.588-33.364 9.883-49.961z" fill="#80BC00" style="mix-blend-mode:multiply"/><path d="M416.685 26.153c.715 6.446 1.429 12.791 2.143 19.186l-.53.345c-4.52 2.756-9.048 5.51-13.58 8.261a.9.9 0 0 0-.504.95c.224 5.11.442 10.222.655 15.337l.328 7.774.639 14.85c.092 2.31.193 4.63.285 6.95.135 3.086.267 6.168.395 9.244v.714l-11.874 2.521c-.076-.605-.16-1.168-.227-1.68-.294-2.446-.58-4.9-.84-7.346l-1.01-8.269c-.293-2.429-.58-4.858-.84-7.286l-.94-7.312c-.253-2.1-.508-4.202-.766-6.303a2893.33 2893.33 0 0 1-.773-6.361c-.252-2.11-.496-4.202-.756-6.312-.26-2.11-.513-4.202-.765-6.37s-.513-4.202-.765-6.303c-.024-.42-.075-.838-.15-1.252a.656.656 0 0 1 .369-.799c1.521-1.042 3.034-2.109 4.546-3.16l24.321-16.959.64-.42zM450.26 167.03c.05 1.882.403 3.74.269 5.698l-3.362.453c-.538-4.613-1.075-9.177-1.63-13.799l6.614-1.092c.235.638.454 1.252.68 1.848.28.787.751 1.491 1.37 2.051 1.286 1.076 2.522 2.185 3.833 3.278l1.58 1.327c.452.466.766 1.048.907 1.681.164.708.198 1.44.101 2.16a.563.563 0 0 1-.185.328 2.874 2.874 0 0 1-1.908.84 7.337 7.337 0 0 1-2.916-.689c-1.68-.672-3.008-2.076-4.403-3.362-.286-.26-.572-.554-.84-.84l-.11.118zm-36.456-4.438c-.673 1.765-1 3.64-1.9 5.387l-3.773-1.059c1.185-4.504 2.37-8.975 3.563-13.496l7.48 1.899v2.017a4.942 4.942 0 0 0 .68 2.521c.95 1.555 1.883 3.143 2.824 4.715l1.177 1.924c.306.613.417 1.305.32 1.984a5.168 5.168 0 0 1-.724 2.042.58.58 0 0 1-.319.227 3.63 3.63 0 0 1-2.37-.06 9.656 9.656 0 0 1-2.849-1.915c-1.513-1.353-2.412-3.244-3.412-5.043-.21-.37-.395-.756-.588-1.134l-.11-.009z" fill="#00303C" style="mix-blend-mode:multiply"/><path fill="#00303C" style="mix-blend-mode:multiply" d="M415.466592 26.1615288L455.721562 25.8926021 450.149737 69.7276597 421.223305 69.9713746"/><path d="M489.11 28.06c.008-.108.008-.218 0-.327-.109-1.1-.243-2.193-.344-3.294-.1-1.101-.185-2.387-.286-3.589v-.143c.244-.26.135-.596.185-.899.143-.781.227-1.571.37-2.353.075-.454.21-.9.336-1.403h.908c0 3.033.067 6.034.1 9.034h.11c.134-.975.168-1.958.26-2.942.093-.983.16-1.974.244-2.966.084-.992.168-2 .26-3.06l1.127.043a83.098 83.098 0 0 0-.748 9.177l.53.05c.318-3.042.646-6.05.974-9.118l1.487.076c0 1.059-.243 2.059-.302 3.067-.059 1.009-.168 2.009-.252 3.009-.084 1-.168 2.034-.26 3.118l.974.084c.05-.547.093-1.068.143-1.58.09-.626.135-1.258.135-1.891-.025-.902.048-1.804.218-2.69.134-1.008.361-2.008.555-3.042l1.412.076c.197.481.275 1.003.226 1.521a35.675 35.675 0 0 1-.252 4.345c-.21 1.68-.437 3.311-.672 4.967a72.602 72.602 0 0 1-.47 3.017c-.11.605-.303 1.201-.471 1.832l-7.959-.504c-.126-.564-.26-1.11-.378-1.681-.437-1.95-.882-3.9-1.311-5.883a3.278 3.278 0 0 1 0-1.563c.1-.412.622-.84 1-.69.24.12.444.303.588.53a4.9 4.9 0 0 1 .84 2.311c.118.95.194 1.9.278 2.85.067.285.025.545.445.512z" fill="#754C29" style="mix-blend-mode:multiply"/><path d="M429.064 26.355c.446-.597.84-1.11 1.236-1.639a7.681 7.681 0 0 0 1.294-2.521 14.22 14.22 0 0 0 .512-3.538 9.026 9.026 0 0 0-.73-3.74c-.21-.462-.513-.89-.765-1.328l-.16-.235c.664 0 1.302 0 1.933-.076.288-.044.57-.123.84-.235a8.614 8.614 0 0 0 3.084-1.916 12.866 12.866 0 0 0 1.9-2.69c1.504 2.673 3.874 3.682 6.723 3.908l-.252.597a16.026 16.026 0 0 0-.95 4.076 15.253 15.253 0 0 0 .572 6 8.169 8.169 0 0 0 1.605 2.925l.353.437v.059c0 .008 0 0 0 0l-16.707-.093-.488.009z" fill="#A97C50" style="mix-blend-mode:multiply"/><path d="M445.738 26.54a6.975 6.975 0 0 1-2.353-3.664 14.514 14.514 0 0 1 .84-9.472c.322-.65.78-1.224 1.345-1.68.173-.104.36-.183.554-.236.35.647.658 1.315.925 2 .414 1.265.632 2.586.647 3.917v2.697a5.933 5.933 0 0 1-.345 2.026 360.529 360.529 0 0 1-1.386 3.9c-.009.167-.11.293-.227.512zm-16.649.017l-.05-.395c-.151-1.32-.345-2.63-.437-3.959a21.8 21.8 0 0 1 .092-4.68c.177-1.405.475-2.791.891-4.144.05-.16.118-.32.185-.479a1.58 1.58 0 0 1 .151-.193 5.042 5.042 0 0 1 2.043 2.134c.69 1.68.897 3.52.596 5.312a10.295 10.295 0 0 1-2.025 4.622 52.2 52.2 0 0 1-.992 1.387c-.109.16-.243.294-.353.437l-.1-.042z" fill="#00303C" style="mix-blend-mode:multiply"/><path d="M446.72 12.236a6.177 6.177 0 0 1-.797.202 7.816 7.816 0 0 1-3.631-.227 7.463 7.463 0 0 1-4.093-2.832 1.782 1.782 0 0 1-.227-1.681 9.833 9.833 0 0 1 3.362 0c.484.108.947.296 1.37.555a12.287 12.287 0 0 1 3.714 3.513c.101.1.177.268.303.47z" fill="#00303C" style="mix-blend-mode:multiply"/><path d="M429.442 13.446a6.236 6.236 0 0 1 1.21-1.781c.286-.353.622-.664.942-.992l.075-.076a13.79 13.79 0 0 1 2.345-1.479c.21-.084.395-.193.597-.294 1.21-.532 2.476-.93 3.773-1.185.278.21.168.42.084.614a8.328 8.328 0 0 1-2.134 2.975 9.69 9.69 0 0 1-2.967 1.865 6.984 6.984 0 0 1-3.925.353z" fill="#00303C" style="mix-blend-mode:multiply"/><path d="M434.535 14.018c-.68 0-1.378.504-1.252 1.202.05.202.185.373.37.47.267.177.572.29.89.328a3.95 3.95 0 0 0 1.824-.076c.229-.06.429-.2.563-.395.254-.299.313-.718.152-1.075a.706.706 0 0 0-.538-.404 2.588 2.588 0 0 0-.563-.075l-1.446.025z" fill="#FFF"/><path d="M440.317 20.304c.072-.288.02-.593-.143-.84-.798-1.244-1.58-2.522-2.37-3.732 0 0-.05 0-.117-.092l-.748.462a14.917 14.917 0 0 0 2.042 3.126 7.799 7.799 0 0 1-1.227.05c-.387 0-1.47-.1-1.9-.109 0 .328-.075.698-.058 1.06l4.521.075zm-.344 2.731v-1.252c-1.412.21-2.774-.227-4.202-.387v1.337c1.411.126 2.781.546 4.202.302zm-3.648-8.185a1.202 1.202 0 0 1 0-.185.983.983 0 0 0-.697-.782h-.16l-.395.076a.647.647 0 0 0-.454.53c-.073.394-.035.801.11 1.176a.37.37 0 0 0 .142.193c.14.111.292.205.454.278a.992.992 0 0 0 .908-.236.975.975 0 0 0 .176-.84c0-.084 0-.168-.05-.252l-.034.042z" fill="#00303C"/><path d="M438.838 13.858c-.672 0-1.378.513-1.252 1.21.057.2.194.367.378.463.267.18.572.294.89.336.604.109 1.224.083 1.816-.076.232-.064.434-.207.572-.403.25-.298.309-.712.15-1.068a.706.706 0 0 0-.537-.411 2.588 2.588 0 0 0-.563-.076c-.488 0-.967.017-1.454.025z" fill="#FFF"/><path d="M440.636 14.69a1.303 1.303 0 0 1 0-.176.983.983 0 0 0-.697-.782.345.345 0 0 0-.16 0l-.403.084a.63.63 0 0 0-.446.53c-.076.394-.039.802.11 1.176.027.075.077.14.143.185.14.11.293.207.453.286.325.069.662-.022.908-.244a.975.975 0 0 0 .176-.798l-.05-.252-.034-.009z" fill="#00303C"/><path d="M403.625 112.235c.017.108.042.215.076.32.395 1.025.798 2.05 1.185 3.092.387 1.042.84 2.252 1.202 3.361 0 .05.059.11.042.143-.168.311 0 .614.059.916.058.79.185 1.58.252 2.37.042.463 0 .925 0 1.437l-.883.202c-.84-2.925-1.63-5.815-2.445-8.698h-.101c.118.975.344 1.941.504 2.908.16.966.362 1.95.538 2.924.176.975.361 1.984.546 3.026l-1.1.252a83.989 83.989 0 0 0-1.681-9l-.521.092c.47 3.025.94 6.008 1.428 9.06l-1.462.318c-.303-1.025-.294-2.058-.496-3.05s-.361-1.983-.546-2.975c-.185-.992-.37-2-.563-3.068l-.958.168c.092.538.185 1.051.277 1.564.069.628.19 1.249.361 1.857.255.865.416 1.756.48 2.656.134 1.008.176 2.033.252 3.084l-1.379.294a3.185 3.185 0 0 1-.613-1.412 33.33 33.33 0 0 1-.883-4.26c-.218-1.682-.437-3.312-.638-4.967a62.317 62.317 0 0 1-.336-3.043c-.05-.613 0-1.235 0-1.89l7.815-1.572c.27.504.538.992.799 1.487l2.781 5.303c.245.47.377.991.387 1.521 0 .42-.387.95-.782.925a1.538 1.538 0 0 1-.706-.362 4.731 4.731 0 0 1-1.428-2.008c-.37-.84-.681-1.782-1.017-2.681-.059-.168-.084-.429-.446-.294z" fill="#A97C50" style="mix-blend-mode:multiply"/><path fill="#A97C50" style="mix-blend-mode:multiply" d="M438.686735 120.260674L450.040485 121.126282 452.275939 159.456745 445.519154 160.347565"/><path fill="#A97C50" style="mix-blend-mode:multiply" d="M418.172667 118.361379L429.82896 120.453965 418.323938 156.448127 411.331843 154.641276"/><path d="M65.71 234.655h.765l4.858.068h7.916c1.614 0 3.236.05 4.858.058.907 0 1.815-.042 2.723 0l8.9.076c4.134 0 8.277.05 12.404.076.243 0 .479 0 .84.05-2.807 18.43-5.597 36.776-8.404 55.155-10.32 0-20.606 0-30.935-.05a7.832 7.832 0 0 1-.176-1.68c0-.69-.06-1.37-.11-2.051-.075-.967-.16-1.933-.235-2.908-.067-.84-.143-1.639-.202-2.463-.058-.823-.075-1.571-.126-2.353 0-.538-.1-1.067-.142-1.605-.06-1.076-.084-2.134-.16-3.21 0-.572-.143-1.143-.193-1.723v-1.118a2.714 2.714 0 0 0 0-.37c-.05-.722-.101-1.437-.16-2.16 0-.344-.093-.688-.118-1.041-.1-1.538-.176-3.076-.277-4.614 0-.328-.143-.647-.168-.967-.059-.714 0-1.437-.093-2.151a20.245 20.245 0 0 1-.168-2.521 13.656 13.656 0 0 0-.151-1.53c-.05-.672-.067-1.344-.092-2.008 0-.27-.093-.538-.11-.84-.05-.841-.067-1.681-.134-2.572s-.202-1.681-.269-2.463c-.1-1.109-.16-2.235-.252-3.361-.059-.782-.151-1.563-.21-2.353-.076-.992-.126-1.984-.185-2.975-.067-1.194-.143-2.387-.202-3.58a8.21 8.21 0 0 1 .009-.816z" fill="#D0AF21" style="mix-blend-mode:multiply"/><path d="M110.428 331.847l-50.172-.084a18146.57 18146.57 0 0 0 9.497-43.507h15.724c5.219 0 10.437 0 15.723.042 3.093 14.53 6.152 29.002 9.228 43.55z" fill="#00303C" style="mix-blend-mode:multiply"/><path d="M24.682 292.575c-.31-22.421-.613-44.776-.916-67.19h9.841c.05.413.126.841.152 1.261.092 1.74.16 3.48.26 5.228.101 1.874.227 3.756.345 5.639.16 2.52.32 5.093.504 7.639.21 3.025.454 6.05.68 9.076.186 2.463.354 4.933.53 7.404.227 3.042.462 6.093.69 9.135.134 1.891.268 3.774.411 5.664.002.227.06.45.168.648.126-.169.26-.337.387-.513L51.55 258.17l7.143-9.53c.429-.58.79-1.219 1.21-1.807.42-.589.967-1.244 1.42-1.883.455-.638.908-1.328 1.345-2 .437-.672.69-1.176 1.06-1.731.235-.345.545-.614.79-.95.243-.336.403-.706.604-1.05.055-.113.117-.223.185-.328.706-.84 1.152-1.89 1.857-2.757.286-.36.555-.73.84-1.15.085 1.008.169 1.974.245 2.94.243 3.068.47 6.127.705 9.194.093 1.118.143 2.244.278 3.362.01.37-.13.727-.387.992l-5.815 8.715c-7.11 10.605-14.214 21.206-21.313 31.8a1.21 1.21 0 0 1-1.143.63c-5.042 0-10.084 0-15.127-.042h-.765z" fill="#D0AF21" style="mix-blend-mode:multiply"/><path d="M70.005 381.926c0 2.127-.504 4.253-.269 6.463l4.908.445c.69-5.244 1.378-10.437 2.067-15.698l-9.622-1.093c-.328.731-.63 1.429-.95 2.11a5.765 5.765 0 0 1-1.95 2.344c-1.84 1.253-3.655 2.522-5.487 3.799-.748.521-1.505 1.034-2.261 1.546a3.748 3.748 0 0 0-1.286 1.958 5.16 5.16 0 0 0-.092 2.454c.036.15.13.28.26.362.816.587 1.793.91 2.799.924a13 13 0 0 0 4.202-.84c2.386-.79 4.32-2.42 6.328-3.908.412-.311.84-.639 1.21-.958l.143.092zm32.406 0c0 2.127.504 4.253.269 6.463l-4.9.445a7939.261 7939.261 0 0 1-2.067-15.698l9.614-1.093c.336.731.639 1.429.958 2.11a5.64 5.64 0 0 0 1.95 2.361 580.906 580.906 0 0 1 5.479 3.799l2.27 1.546a3.748 3.748 0 0 1 1.285 1.958c.224.8.255 1.64.092 2.454a.605.605 0 0 1-.269.362 4.866 4.866 0 0 1-2.79.924 13 13 0 0 1-4.202-.84c-2.386-.79-4.32-2.42-6.328-3.908-.412-.311-.84-.639-1.21-.958l-.151.075z" fill="#F88D2B" style="mix-blend-mode:multiply"/><path d="M149.254 292.575l.908-67.19h-9.841c-.05.421-.126.841-.151 1.261-.093 1.74-.16 3.48-.26 5.228-.102 1.877-.217 3.756-.345 5.639-.16 2.52-.311 5.093-.496 7.639-.219 3.025-.462 6.05-.69 9.076l-.529 7.404c-.227 3.042-.454 6.093-.689 9.135l-.403 5.664c-.01.226-.068.446-.168.648l-.395-.505-13.808-18.404a5273.7 5273.7 0 0 1-7.143-9.53c-.437-.58-.799-1.219-1.21-1.807-.412-.589-.967-1.244-1.42-1.883a59.343 59.343 0 0 1-1.354-2c-.437-.672-.68-1.176-1.059-1.731-.227-.336-.546-.614-.781-.95-.236-.336-.412-.697-.614-1.05a2.521 2.521 0 0 0-.185-.328c-.697-.84-1.151-1.89-1.857-2.757a24.267 24.267 0 0 1-.84-1.15c-.085 1.008-.16 1.974-.244 2.94l-.706 9.194c-.084 1.118-.143 2.244-.277 3.362-.007.369.132.725.386.992l5.832 8.698c7.11 10.606 14.214 21.206 21.313 31.8.222.419.67.666 1.143.63 5.042 0 10.085 0 15.127-.041l.756.016z" fill="#D0AF21" style="mix-blend-mode:multiply"/><path d="M116.95 222.31a.454.454 0 0 1-.202.622c-.765.538-1.504 1.1-2.27 1.63a4.824 4.824 0 0 1-.966.513 30.59 30.59 0 0 1-3.731 1.294 79.164 79.164 0 0 1-3.446.84c-.598.093-1.201.152-1.807.177-.95.076-1.907.176-2.857.193a13.58 13.58 0 0 1-2.1-.143 9.505 9.505 0 0 1-2.615-.756.504.504 0 0 1-.352-.378c-.21-1.05-.437-2.093-.673-3.168.546-.362 1.101-.723 1.681-1.101a6.06 6.06 0 0 1 1.53-.765 21.766 21.766 0 0 1 5.32-1.084c1.159-.101 2.327-.093 3.495-.084.563.025 1.124.078 1.681.16.588.067 1.177.109 1.756.218.664.117 1.318.28 1.959.487 1.075.37 2.126.84 3.193 1.202l.404.143z" fill="#00303C" style="mix-blend-mode:multiply"/><path d="M79.24 228.436c.128-.084.26-.16.396-.226.93-.423 1.804-.956 2.605-1.589a10.614 10.614 0 0 0 1.496-1.26 15.74 15.74 0 0 0 1.849-2.278c.462-.731.89-1.496 1.336-2.244a12.06 12.06 0 0 0 1.202-2.823c.085.118.163.242.235.37a19.472 19.472 0 0 0 2.26 3.647c.7.928 1.523 1.756 2.446 2.462a9.412 9.412 0 0 0 3.202 1.605c.244.059.471.16.757.26 0 .37 0 .723-.093 1.06-.109.697-.218 1.395-.361 2.084a13.909 13.909 0 0 1-.412 1.512c-.31.883-.622 1.774-.975 2.64-.193.478-.47.907-.697 1.37a.31.31 0 0 1-.32.2h-11.85a.664.664 0 0 1-.672-.377 19.808 19.808 0 0 1-1.487-3.202 5.412 5.412 0 0 0-.252-.605 12.942 12.942 0 0 1-.664-2.606z" fill="#C49A6C" style="mix-blend-mode:multiply"/><path d="M79.317 228.857c0-.27-.05-.471-.05-.664 0-.74-.051-1.488 0-2.219a9.58 9.58 0 0 1 .688-3.143 11.11 11.11 0 0 1 2.295-3.488c.568-.57 1.28-.98 2.059-1.185.673-.166 1.359-.278 2.05-.336.58-.059 1.168-.05 1.757-.067h.487c-.074.35-.193.689-.353 1.008-.496.959-.983 1.917-1.53 2.833-.546.916-1.025 1.68-1.588 2.412a15.178 15.178 0 0 1-2.664 2.773 19.262 19.262 0 0 1-2.807 1.882c-.11.073-.225.138-.344.194z" fill="#00303C" style="mix-blend-mode:multiply"/><path d="M87.897 217.78a4.505 4.505 0 0 1 1.622.185c.862.13 1.707.352 2.521.664a8.093 8.093 0 0 1 4.202 4.034c.308.697.534 1.427.672 2.177.123.686.207 1.38.253 2.075a.95.95 0 0 1-.042.26 15.01 15.01 0 0 1-1.832-.705 14.455 14.455 0 0 1-5.043-4.597 28.573 28.573 0 0 1-2.151-3.69c-.11-.117-.143-.251-.202-.403z" fill="#00303C" style="mix-blend-mode:multiply"/><path d="M86.317 229.428a.765.765 0 0 1 0-.664l2.236-3.672.689.269a13.85 13.85 0 0 1-1.681 3.033c.84.05 1.68 0 2.521 0 .114.265.15.557.1.84-1.277.194-2.554.194-3.865.194zm-.244.992h.706c.152.512.443.971.84 1.328a1.89 1.89 0 0 0 .959-.58c.11-.141.206-.293.285-.454.101-.235.227-.378.513-.345.286.034.361 0 .597 0a1.177 1.177 0 0 1-.076.395c-.143.303-.302.597-.479.891a1.361 1.361 0 0 1-.26.278 2.446 2.446 0 0 1-2.06.546.571.571 0 0 1-.31-.202 2.605 2.605 0 0 1-.715-1.857z" fill="#00303C"/><path d="M91.822 224.545a1.042 1.042 0 0 1 1.185 1.076.84.84 0 0 1-.311.488 1.748 1.748 0 0 1-.79.386 3.362 3.362 0 0 1-1.681.076.84.84 0 0 1-.53-.345 1.059 1.059 0 0 1-.193-1.033.68.68 0 0 1 .47-.437c.165-.056.333-.096.505-.118.47-.042.908-.059 1.345-.093z" fill="#FFF"/><path d="M90.527 225.764a.613.613 0 0 0 0-.168.958.958 0 0 1 .236-.941.244.244 0 0 1 .117-.068c.11-.036.222-.065.337-.084a.521.521 0 0 1 .537.286c.215.315.345.68.379 1.059a.462.462 0 0 1 0 .219 2.9 2.9 0 0 1-.244.42.782.782 0 0 1-.782.143.966.966 0 0 1-.445-.63 2.404 2.404 0 0 0-.059-.236h-.076z" fill="#00303C"/><path d="M86.947 224.512a1.05 1.05 0 0 1 1.194 1.076.748.748 0 0 1-.32.479c-.224.193-.492.329-.781.395a3.521 3.521 0 0 1-1.681.075.84.84 0 0 1-.53-.344 1.042 1.042 0 0 1-.184-1.034.68.68 0 0 1 .462-.446 2.74 2.74 0 0 1 .504-.117c.47-.042.95-.059 1.336-.084z" fill="#FFF"/><path d="M85.72 225.831a1.227 1.227 0 0 0-.058-.16 1 1 0 0 1 .15-.966.328.328 0 0 1 .118-.067c.107-.046.217-.085.328-.118a.571.571 0 0 1 .563.236c.232.303.387.657.454 1.033a.387.387 0 0 1 0 .219 1.89 1.89 0 0 1-.202.437.782.782 0 0 1-.764.21 1 1 0 0 1-.496-.588l-.076-.236h-.017z" fill="#00303C"/><path d="M145.784 208.52h1.907c.32 0 .429.117.404.444a31.638 31.638 0 0 1-.168 1.816 27.657 27.657 0 0 1-.959 4.47c-.131.482-.288.956-.47 1.42a4.58 4.58 0 0 0-.294 1.17c-.068.545-.21 1.083-.328 1.68h.84c.05-.21.118-.42.152-.639.124-.749.304-1.488.537-2.21.227-.706.387-1.437.572-2.16.185-.723.328-1.218.454-1.84.223-.921.358-1.861.403-2.807 0-.152-.042-.32.135-.42 0 0 0-.135.05-.21v-.656h1.68c.17.362.21.772.11 1.16-.076.58-.126 1.16-.235 1.722-.168.84-.353 1.757-.58 2.622-.227.866-.48 1.522-.723 2.286-.21.63-.496 1.227-.74 1.84-.148.43-.271.868-.37 1.312h.757c.527-1.15.965-2.339 1.311-3.555.21-.68.437-1.345.614-2.034.176-.689.336-1.538.487-2.31.067-.345.11-.698.168-1.051v-.042c.286-.328.16-.757.236-1.127a1.286 1.286 0 0 0 0-.31v-.513h1.832c.077.212.133.432.168.655.095.846.115 1.698.058 2.547-.068.708-.2 1.408-.395 2.092-.134.454-.193.925-.31 1.379-.513 1.941-1.043 3.882-1.564 5.824-.226.84-.428 1.68-.655 2.563-.227.882-.454 1.563-.69 2.344-.029.078-.063.154-.1.227h-9.076c-.152-.395-.328-.84-.471-1.252-.31-.92-.565-1.857-.765-2.807-.218-1.05-.454-2.1-.655-3.16-.12-.525-.198-1.059-.236-1.596a6.916 6.916 0 0 1 .076-2.202c0-.076.05-.151.076-.236h.89c.098-.009.195.021.27.085.283.265.52.574.705.916.185.445.412.84.605 1.31.11.244.194.505.328.765v-.285-1.63c0-.152-.05-.32.135-.413a.219.219 0 0 0 .042-.142c0-.563 0-1.127.05-1.681a25.12 25.12 0 0 1 .311-3.068c.135-.756.294-1.512.446-2.286h2.084a7.27 7.27 0 0 1 0 1.681c-.185 1.21-.353 2.429-.555 3.64-.16.94-.378 1.882-.563 2.823a1.555 1.555 0 0 0 0 .395c.056.668.02 1.342-.11 2v.378h.883c.059-.403.118-.84.16-1.235.042-.395.117-1.042.143-1.572.05-.84.252-1.68.378-2.52.11-.648.252-1.295.353-1.942.1-.647.134-1.101.193-1.681.04-.279.066-.56.076-.84-.017-.328-.05-.69-.067-1.135zm-117.261-.463h-1.9c-.327 0-.436.118-.411.454 0 .605.1 1.21.168 1.807.2 1.513.52 3.008.958 4.47.132.482.289.956.47 1.42.15.375.249.768.295 1.169.067.546.21 1.084.328 1.68h-.84a5.27 5.27 0 0 1-.144-.63c-.121-.75-.304-1.49-.546-2.21-.218-.714-.387-1.445-.571-2.168-.185-.723-.328-1.219-.454-1.832a15.9 15.9 0 0 1-.404-2.816c0-.15.042-.319-.126-.42-.168-.1-.05-.134-.05-.21 0-.21 0-.42-.042-.647h-1.68c-.14.363-.156.762-.043 1.135.067.58.126 1.16.235 1.73.16.841.345 1.749.572 2.614.227.866.487 1.522.731 2.286.244.765.487 1.227.74 1.85.143.43.264.867.36 1.31h-.747a25.523 25.523 0 0 1-1.32-3.563c-.21-.672-.436-1.345-.613-2.034-.176-.689-.336-1.53-.479-2.302-.076-.353-.118-.706-.168-1.06a.092.092 0 0 0 0-.041c-.286-.328-.151-.748-.235-1.127v-.31-.513h-1.874a3.025 3.025 0 0 0-.177.655c-.105.867-.13 1.742-.076 2.614.077.704.21 1.4.395 2.084.143.454.194.925.311 1.378.513 1.942 1.042 3.883 1.564 5.824.226.84.428 1.681.663 2.522.236.84.454 1.563.681 2.344l.101.236h9.076c.152-.404.328-.84.47-1.253.315-.921.57-1.861.766-2.815.218-1.05.453-2.1.664-3.151.112-.53.188-1.066.226-1.606a6.925 6.925 0 0 0-.067-2.201c0-.076-.059-.152-.084-.236h-.89a.378.378 0 0 0-.27.093c-.282.263-.52.569-.705.907-.177.446-.412.84-.606 1.311-.109.252-.193.513-.327.765v-1.916c0-.151.042-.32-.135-.412 0 0-.05-.092-.05-.134 0-.572 0-1.135-.05-1.681a26.548 26.548 0 0 0-.303-3.06c-.143-.764-.303-1.52-.454-2.293h-2.101a6.463 6.463 0 0 0 0 1.68c.177 1.21.345 2.43.555 3.64.16.949.37 1.882.554 2.823.021.13.021.264 0 .395a6.664 6.664 0 0 0 .11 2v.378h-.84c-.051-.403-.118-.84-.16-1.235a40.247 40.247 0 0 1-.143-1.572c-.05-.84-.252-1.68-.379-2.52-.109-.656-.243-1.303-.352-1.95-.11-.648-.135-1.101-.194-1.681 0-.286-.067-.58-.075-.84-.009-.261.075-.69.092-1.135z" fill="#C49A6C" style="mix-blend-mode:multiply"/><path fill="#C49A6C" style="mix-blend-mode:multiply" d="M90.2837469 330.889134L102.082907 330.981578 105.259604 372.816493 95.8303608 374.741"/><path fill="#C49A6C" style="mix-blend-mode:multiply" d="M82.5605073 330.947962L70.7613468 331.040405 67.5846498 372.824897 77.0138934 374.741"/><path fill="#D0AF21" style="mix-blend-mode:multiply" d="M326.124089 207.695478L326.124089 391.784231 167.961553 391.784231 167.961553 207.737498z"/><path d="M146.019 176.651V46.726h233.756c.445 2.059.563 126.312.092 129.925H146.02z" fill="#EFB8A9" style="mix-blend-mode:multiply"/><path d="M0 209.158V169.86h240.48c.646.84.84 37.532.218 39.297H0z" fill="#80BC00" style="mix-blend-mode:multiply"/><path d="M314.308 208.553v-37.885c2.521-.252 200.51-.278 203.376 0v37.91l-203.376-.025z" fill="#00303C" style="mix-blend-mode:multiply"/><path d="M194.787 50.062V0H346.84c.412 1.05.555 47.81.143 50.062H194.787z" fill="#80BC00" style="mix-blend-mode:multiply"/><path d="M407.29 374.943l-14.245-44.71c-.177.328-2.992 17.229-4.068 23.969-1.285 7.992-2.639 15.967-3.958 23.993l-12.404.42c2.297-20.371 4.588-40.742 6.874-61.113l25.094-.538c4.376 15.032 8.766 30.078 13.17 45.137l31.094.244c.168 3.48.328 6.942.437 10.421a3.05 3.05 0 0 1-.328.059l-10.345.672c-3.765.252-7.563.48-11.312.757-4.874.37-9.757.512-14.648.605l-4.9.092c-.159.009-.285-.008-.461-.008z" fill="#F88D2B" style="mix-blend-mode:multiply"/><path d="M383.355 377.91l.328 9.815-5 .168c-.051-1.454-.101-2.9-.152-4.42a1.908 1.908 0 0 0-.31.143 6.547 6.547 0 0 1-1.892.907c-.84.278-1.68.698-2.52 1.017-1.186.454-2.245 1.168-3.463 1.521-1.219.353-2.337.698-3.505 1.034-1.208.34-2.46.493-3.714.454a1.538 1.538 0 0 1-1.034-.446 2.126 2.126 0 0 1-.723-1.52 7.37 7.37 0 0 0 0-.757c-.11-.688.26-1.363.9-1.639.84-.454 1.73-.84 2.613-1.26a9.244 9.244 0 0 1 1.53-.547 25.145 25.145 0 0 0 2.874-1.176c.655-.278 1.336-.513 2.008-.774.673-.26 1.362-.529 2.034-.84a73.57 73.57 0 0 0 1.757-.84.84.84 0 0 0 .294-.194c.201-.37.53-.395.89-.411 2.177-.06 4.345-.135 6.514-.21l.571-.026zm65.635-14.54l9.866-.319c.06 1.68.11 3.311.168 5.042l-4.429.143c.04.112.09.219.152.32.4.575.706 1.21.907 1.882.27.84.69 1.681 1.017 2.521.446 1.185 1.168 2.244 1.513 3.471.344 1.227.706 2.328 1.042 3.496.34 1.208.49 2.461.445 3.715a1.496 1.496 0 0 1-.445 1.042c-.385.43-.928.684-1.504.706h-.757a1.513 1.513 0 0 1-1.63-.891c-.462-.84-.84-1.74-1.269-2.614a11.455 11.455 0 0 1-.605-1.538 21.943 21.943 0 0 0-1.177-2.874c-.269-.664-.504-1.344-.764-2.008-.26-.664-.53-1.37-.84-2.034-.312-.664-.547-1.177-.841-1.765a.63.63 0 0 0-.185-.286c-.37-.201-.395-.529-.412-.899-.059-2.168-.134-4.336-.21-6.513l-.042-.597zm-109.109-80.09h39.81c.118-.42.143-15.412 0-16.101h-2.706c-.362 0-.723 0-1.084.042l-4.833.134c-1.815.05-3.622.11-5.437.135h-3.42l-6.723.067h-.353c-.345-3.673-.622-7.354-.933-11.035-.311-3.68-.614-7.378-.916-11.06l-.908-11.017c-.31-3.68-.622-7.362-.933-11.068h-15.127c1.193 19.946 2.381 39.913 3.563 59.904zm109.117 0H409.18c-.109-.42-.134-15.412 0-16.101h2.698c.37 0 .731 0 1.093.042l4.832.134c1.807.05 3.614.11 5.429.135h3.429l6.723.067h.353c.336-3.673.613-7.354.933-11.035.319-3.68.605-7.378.907-11.06.303-3.68.605-7.344.916-11.017.311-3.672.614-7.362.925-11.068h15.127c-1.188 19.946-2.37 39.913-3.547 59.904z" fill="#00303C" style="mix-blend-mode:multiply"/><path d="M379.792 260.607h5.992c.092-1.975.168-3.942.26-5.883h-.1l-.295.244c-1.462 1.361-2.933 2.714-4.378 4.084-.48.454-.9.941-1.345 1.42 0 0-.092.068-.134.101v.034z" fill="#EFB8A9"/><path d="M401.255 263.943l-1.235-.756a5.168 5.168 0 0 1-.52-.353 16.724 16.724 0 0 1-1.396-1.16 8.328 8.328 0 0 1-.89-1.126 5.345 5.345 0 0 1-.942-2.992 8 8 0 0 1 .756-3.849c.254-.48.535-.946.84-1.395-.085.015-.17.038-.251.067a4.858 4.858 0 0 1-1.681.311 5.21 5.21 0 0 1-1.731-.084c-.857-.153-1.7-.375-2.522-.664-.254-.099-.52-.17-.79-.21a1.05 1.05 0 0 1-.495-.21 9.758 9.758 0 0 0-.84-.563 4.32 4.32 0 0 1-1.841-2.294l-.068-.059a3.97 3.97 0 0 0-.243.286 9.446 9.446 0 0 0-1.748 4 21.7 21.7 0 0 0-.387 3.53c-.021 1.522.131 3.042.454 4.53.173.819.403 1.625.69 2.411.333.967.737 1.908 1.21 2.816.277.53.613 1.025.898 1.538.114.21.342.332.58.31h9.69a.496.496 0 0 0 .53-.294c.621-1.252 1.269-2.504 1.932-3.79z" fill="#EFB8A9"/><path d="M400.163 252.16a4.084 4.084 0 0 0-.387-.579c-.554-.572-1.109-1.143-1.68-1.68a8.404 8.404 0 0 0-1.74-1.177 9.547 9.547 0 0 0-1.336-.69 12.22 12.22 0 0 0-3.068-.747 6.606 6.606 0 0 0-3.622.63c-.32.151-.622.344-.941.496a.387.387 0 0 0-.227.571c.198.497.502.944.89 1.311.481.466 1.021.868 1.606 1.194.168.103.345.19.53.26 1.134.387 2.26.84 3.42 1.126 1.24.372 2.556.41 3.815.11.789-.161 1.566-.372 2.328-.63l.412-.194z" fill="#00303C" style="mix-blend-mode:multiply"/><path d="M399.734 251.094l-1.68.89a4.647 4.647 0 0 0-1.63 1.488 6.177 6.177 0 0 0-1.11 3.008 5.942 5.942 0 0 0 .386 3.102 6.53 6.53 0 0 0 2.21 2.68c.623.463 1.253.9 1.908 1.32.356.2.724.38 1.101.538.135-.293.253-.593.353-.9.177-.705.353-1.411.488-2.117.082-.493.135-.99.16-1.488.057-.51.076-1.024.058-1.538a15.329 15.329 0 0 0-.235-2.697 11.707 11.707 0 0 0-1.798-4.05l-.21-.236z" fill="#00303C" style="mix-blend-mode:multiply"/><path d="M391.625 255.077a2.345 2.345 0 0 0-.362-.286 19.606 19.606 0 0 0-1.773-.907 4.513 4.513 0 0 0-2.101-.353c-.38.034-.751.14-1.093.31-.394.23-.638.653-.638 1.11 0 .655.395.882.882 1.017a7.959 7.959 0 0 0 4.715-.294c.099-.04.18-.115.227-.21.064-.122.112-.252.143-.387z" fill="#FFF"/><path d="M390.297 261.75h-4.379c0 .235 0 .445.06.68h3.125c-.067.127-.084.236-.142.27a9.169 9.169 0 0 1-1.496 1.067 8.194 8.194 0 0 1-.84.252c.083.218.184.445.285.689a2.521 2.521 0 0 0 1.824-.622 2.63 2.63 0 0 1 .42-.336 2.664 2.664 0 0 0 1.05-1.202c.07-.26.101-.529.093-.798zm-2.379-8.194h.236c.059 0 .134-.042.176.05.042.093.042 0 .059 0 .18.016.339.128.412.294a.84.84 0 0 1 .193.387v.32c.02.282-.005.566-.076.84a1.42 1.42 0 0 1-.092.286 2.597 2.597 0 0 1-.202.37.37.37 0 0 1-.302.159 3.118 3.118 0 0 1-.563 0 .605.605 0 0 1-.488-.16s-.084-.05-.117-.084a.84.84 0 0 1-.26-.706v-.428a2.16 2.16 0 0 1 .167-.908.84.84 0 0 1 .168-.227.597.597 0 0 1 .437-.218c.084.014.168.023.252.025z" fill="#00303C"/><path d="M442.048 220.1a2.605 2.605 0 0 0 0-.37c-.218-1.244-.462-2.48-.664-3.723a642.95 642.95 0 0 1-.638-4.05v-.169c.252-.32.1-.697.134-1.042.093-.9.126-1.807.219-2.706.05-.521.168-1.042.269-1.622h1.033c.303 3.454.597 6.858.84 10.278h.127c.075-1.118 0-2.244.05-3.361.05-1.118 0-2.261 0-3.362v-3.505l1.286-.05a98.604 98.604 0 0 0 0 10.455h.605c.11-3.488.219-6.942.328-10.463l1.68-.042c.118 1.21-.109 2.361-.092 3.52.017 1.16 0 2.304 0 3.447v3.563h1.118v-1.807c.059-.722.059-1.447 0-2.168a14.463 14.463 0 0 1 0-3.076c.067-1.16.235-2.32.37-3.513h1.613c.263.52.395 1.098.387 1.68.136 1.65.166 3.306.092 4.96-.109 1.907-.218 3.806-.344 5.714a79.723 79.723 0 0 1-.27 3.48c-.083.697-.243 1.394-.377 2.125l-9.11.101c-.194-.63-.387-1.227-.572-1.84-.672-2.185-1.336-4.365-1.992-6.539a3.79 3.79 0 0 1-.117-1.79c.084-.47.639-.975 1.076-.84.285.113.533.306.714.555a5.404 5.404 0 0 1 1.176 2.52c.219 1.068.387 2.144.572 3.228.042.193.017.496.487.412z" fill="#EFB8A9" style="mix-blend-mode:multiply"/><path d="M412.45 267.111h-36.86v51.525h32.599c1.423-17.178 2.843-34.352 4.26-51.525z" fill="#00303C" style="mix-blend-mode:multiply"/><path d="M347.26 222.142a2.622 2.622 0 0 1 0-.37c.227-1.244.462-2.48.672-3.723.21-1.244.429-2.698.64-4.05v-.169c-.253-.319-.102-.697-.135-1.042-.093-.899-.126-1.807-.21-2.706-.05-.53-.169-1.042-.27-1.622h-1.033c-.303 3.454-.597 6.858-.89 10.27h-.119c-.075-1.118 0-2.244-.05-3.362-.05-1.117 0-2.26 0-3.361v-3.505l-1.303-.084a98.595 98.595 0 0 1 0 10.455h-.605c-.109-3.496-.218-6.942-.327-10.463l-1.681-.05c-.118 1.218.1 2.37.084 3.53-.017 1.159 0 2.293 0 3.445v3.563h-1.118v-1.807c-.05-.722-.05-1.446 0-2.168a13.934 13.934 0 0 0 0-3.076c-.076-1.16-.244-2.32-.378-3.513h-1.614a3.723 3.723 0 0 0-.386 1.681 40.684 40.684 0 0 0-.084 4.958c.106 1.9.218 3.805.336 5.715.075 1.16.16 2.32.277 3.48.076.697.244 1.386.378 2.125l9.102.101c.193-.63.395-1.235.58-1.84.664-2.185 1.336-4.362 1.991-6.538.178-.58.218-1.193.118-1.79-.084-.471-.639-.975-1.084-.84-.283.117-.53.309-.714.554a5.48 5.48 0 0 0-1.168 2.521c-.227 1.076-.387 2.151-.572 3.227-.034.235-.008.53-.437.454z" fill="#EFB8A9" style="mix-blend-mode:multiply"/><path d="M111.243 29.036l-2.462-.093-9.11-.21c-2.698-.059-5.387-.134-8.085-.202l-7.983-.201-8.287-.21c-1.68-.042-3.277-.101-4.908-.152h-1.487c-.047.238-.073.48-.076.723.067 1.017.143 2.042.227 3.06.168 2.218.345 4.428.504 6.638.168 2.345.328 4.698.496 7.043.168 2.345.362 4.63.538 6.941.177 2.312.32 4.564.48 6.841.159 2.278.36 4.555.529 6.841.156 2.146.31 4.289.462 6.43.084 1.159.16 2.31.252 3.47.021.149.058.295.11.437.193.042.39.073.587.092h35.154c.073-.202.13-.41.168-.621.152-2.589.294-5.177.454-7.766.235-3.781.488-7.563.731-11.337.093-1.496.16-3 .26-4.496.177-2.521.379-5.101.555-7.656.11-1.496.21-2.992.295-4.496.16-2.966.302-5.883.453-8.891.034-.69.084-1.37.143-2.185z" fill="#F88D2B" style="mix-blend-mode:multiply"/><path d="M50.18 163.944c-.454 1.891-1.067 3.513-1.513 5.228.714.389 1.47.696 2.253.916.756.302 1.538.546 2.353.84.103-.137.193-.283.269-.437.974-2.437 1.944-4.874 2.907-7.311 0-.093.05-.202.093-.345a4.26 4.26 0 0 0-.513-.286c-1.781-.672-3.571-1.336-5.353-2.017a1.79 1.79 0 0 0-1.185 0l-11.816 3.278a3.236 3.236 0 0 0-.84.353 1.076 1.076 0 0 0 .134 1.89c.308.152.636.257.975.312 1.629.241 3.284.252 4.916.033a22.094 22.094 0 0 0 5.883-1.764c.37-.202.84-.404 1.437-.69zm61.996-.571c.664 1.824 1.05 3.513 1.622 5.194a10.379 10.379 0 0 0 2.387-.488c.798-.16 1.58-.386 2.412-.596a2.58 2.58 0 0 0 0-.513c-.53-2.563-1.068-5.135-1.605-7.698 0-.101-.068-.193-.118-.345a4.63 4.63 0 0 0-.58.05c-1.857.42-3.715.841-5.58 1.261-.4.087-.756.31-1.009.63-2.68 3.085-5.378 6.16-8.06 9.245a3.21 3.21 0 0 0-.503.756 1.084 1.084 0 0 0 1.16 1.505c.337-.041.666-.135.974-.278a17.758 17.758 0 0 0 4.127-2.639 22.228 22.228 0 0 0 3.9-4.697c.251-.395.47-.799.873-1.387z" fill="#00303C" style="mix-blend-mode:multiply"/><path d="M99.671 20.917l-1.345-1.15a9.152 9.152 0 0 1-2.176-2.615 3.883 3.883 0 0 1-.353-1.344c-.101-.723-.126-1.446-.194-2.236-.119.117-.245.227-.378.328a4.353 4.353 0 0 1-3.11.84 12.875 12.875 0 0 1-2.663-.663 16.354 16.354 0 0 1-1.866-.967 6.152 6.152 0 0 1-1.412-1.176c-.092-.084-.201-.16-.302-.236-.236.647-.454 1.27-.681 1.874a5.723 5.723 0 0 1-1.26 1.908c-.36.393-.856.634-1.387.672a.546.546 0 0 0-.168 0c-.541.184-1.12.225-1.681.118-.134-.01-.27-.01-.404 0a11.766 11.766 0 0 0-.453 2.219c-.1 1.474-.052 2.955.142 4.42.134.887.34 1.76.614 2.614a16.808 16.808 0 0 0 1.588 3.47.639.639 0 0 0 .614.387c4.107 0 8.219.034 12.337.101a.773.773 0 0 0 .639-.277 13.673 13.673 0 0 0 3.445-6.345c.143-.656.294-1.286.454-1.942z" fill="#EFB8A9" style="mix-blend-mode:multiply"/><path d="M96.393 12.665a9.841 9.841 0 0 0-1.571-1.26A14.127 14.127 0 0 0 89.78 9.9a9.32 9.32 0 0 0-4.471.58.69.69 0 0 0-.16.075.168.168 0 0 0-.067.068c.353 1.079 1.072 2 2.033 2.605a9.9 9.9 0 0 0 5.186 1.9 3.79 3.79 0 0 0 1.832-.404 4.69 4.69 0 0 0 2.26-2.06z" fill="#00303C" style="mix-blend-mode:multiply"/><path d="M99.814 21.388a17.993 17.993 0 0 0-.538-4.059 10.32 10.32 0 0 0-1.286-2.908 9.505 9.505 0 0 0-2.31-2.244c-.255.32-.464.674-.623 1.05a5.664 5.664 0 0 0 .521 4.8c.38.608.88 1.131 1.47 1.537.892.606 1.74 1.244 2.606 1.875l.16-.05zm-14.094-10.9c-.294.135-.52.202-.714.32a13.757 13.757 0 0 0-3.362 2.823 7.06 7.06 0 0 0-1.621 3.362v.32c.84-.068 1.63-.076 2.411-.203a2.286 2.286 0 0 0 1.21-.68 6.958 6.958 0 0 0 2.076-3.866 1.9 1.9 0 0 0 .068-.429c.016-.504-.026-1.017-.068-1.647z" fill="#00303C" style="mix-blend-mode:multiply"/><path d="M85.72 23.245a1.008 1.008 0 0 1 0-.882c.975-1.597 1.95-3.202 2.95-4.858l.916.362c-.454 1.487-1.428 2.647-2.235 4.009 1.168.075 2.269 0 3.361 0 .156.362.203.762.135 1.15a62.13 62.13 0 0 1-5.127.22zm-.344 1.286h.933A3.799 3.799 0 0 0 87.4 26.28c.488-.122.93-.385 1.27-.756a3.05 3.05 0 0 0 .369-.614.622.622 0 0 1 .68-.453h.841c-.012.18-.046.357-.1.529-.194.403-.413.79-.64 1.177a2.395 2.395 0 0 1-.344.37 3.236 3.236 0 0 1-2.723.714.698.698 0 0 1-.412-.27 3.42 3.42 0 0 1-.966-2.445z" fill="#00303C"/><path d="M92.981 16.808a1.387 1.387 0 0 1 1.572 1.42 1.034 1.034 0 0 1-.42.647 2.336 2.336 0 0 1-1.042.513 4.505 4.505 0 0 1-2.169.1 1.126 1.126 0 0 1-.705-.453 1.412 1.412 0 0 1-.244-1.37.89.89 0 0 1 .613-.58c.216-.073.439-.126.664-.16.58-.117 1.194-.117 1.731-.117z" fill="#FFF"/><path d="M91.275 18.38c0-.076 0-.152-.058-.219a1.311 1.311 0 0 1 .302-1.26.403.403 0 0 1 .16-.076c.145-.052.294-.092.445-.118a.714.714 0 0 1 .715.378c.28.42.45.902.495 1.404.01.1-.007.202-.05.294a3.42 3.42 0 0 1-.311.546c-.282.252-.68.326-1.034.193a1.269 1.269 0 0 1-.588-.84l-.076-.31v.007z" fill="#00303C"/><path d="M86.56 16.715a1.387 1.387 0 0 1 1.572 1.43c-.054.255-.2.483-.411.638-.301.252-.659.428-1.043.512a4.437 4.437 0 0 1-2.176.101 1.168 1.168 0 0 1-.706-.453 1.395 1.395 0 0 1-.244-1.362.9.9 0 0 1 .614-.588c.218-.074.443-.128.672-.16.546-.025 1.126-.076 1.723-.118z" fill="#FFF"/><path d="M84.88 18.489a1.68 1.68 0 0 0-.076-.219 1.294 1.294 0 0 1 .202-1.277.353.353 0 0 1 .151-.093c.14-.059.283-.11.429-.15a.723.723 0 0 1 .748.318c.311.394.52.86.605 1.353.026.1.026.204 0 .303a5.126 5.126 0 0 1-.269.571 1.017 1.017 0 0 1-1.017.27 1.252 1.252 0 0 1-.655-.774l-.118-.302z" fill="#00303C"/><path d="M139.716 29.8c-1.227-.058-2.345-.126-3.471-.16l-9.244-.293a629.97 629.97 0 0 1-5.631-.202l-7.875-.303-3.403-.1h-.765a6.42 6.42 0 0 0-.185.84 1019.56 1019.56 0 0 0-.31 7.16c-.068 1.462-.144 2.925-.194 4.395v1.782c.232.055.468.092.706.11 2.975.067 5.942.109 8.908.167 1.68 0 3.362.084 5.043.135.152.01.304.033.453.067.04.228.069.458.084.69v4.302c0 3.067 0 6.143.05 9.244.051 5.603.104 11.234.16 16.892 0 1.471 0 2.933.042 4.404 0 3.076.093 6.143.11 9.244 0 1.328-.076 2.656-.084 3.984v4.496c0 .47-.084.941-.068 1.412.084 2.42.202 4.84.286 7.26.042 1.06.05 2.119.05 3.178 0 2.73 0 5.462.043 8.193 0 2.241.016 4.483.05 6.724 0 .546.067 1.092.1 1.68.373.166.779.244 1.186.227l6.437.32 2.757.15h1.1c.196-.3.273-.662.22-1.016.108-2.79.193-5.589.293-8.404.093-2.622.202-5.252.294-7.874.11-3 .21-6 .32-9.001.092-2.597.202-5.185.302-7.774.11-3 .202-6 .311-9 .093-2.522.202-5.118.294-7.673.118-3 .21-6 .32-9 .1-2.59.21-5.186.302-7.775.11-3 .202-6 .32-9 .092-2.597.201-5.185.294-7.774.118-3.042.21-6.076.32-9.11 0-.68.058-1.361.092-2.042.008-.176-.009-.31-.017-.555z" fill="#F88D2B" style="mix-blend-mode:multiply"/><path d="M129.11 142.607l.941.084.9.075c.31 0 .428-.075.428-.411v-1.832a29.531 29.531 0 0 0-.53-4.564 14.169 14.169 0 0 0-.327-1.462 4.773 4.773 0 0 1-.177-1.202c0-.546-.109-1.1-.168-1.68l.79.075c.041.214.07.43.084.647.054.763.164 1.522.328 2.27.16.73.244 1.478.361 2.218.118.74.21 1.244.278 1.874.133.946.178 1.903.134 2.857 0 .152-.067.311.093.429v.874l1.588.143c.194-.35.268-.755.21-1.152 0-.588 0-1.176-.075-1.756-.085-.89-.177-1.79-.328-2.672-.151-.883-.328-1.572-.496-2.354-.143-.655-.37-1.277-.546-1.916a12.37 12.37 0 0 1-.244-1.344l.731.067c.404 1.203.724 2.433.958 3.68.143.698.303 1.388.404 2.093.1.706.184 1.572.268 2.354 0 .353.043.714.06 1.075.243.353.075.773.125 1.16v.823l1.765.16a3.48 3.48 0 0 0 .227-.647c.176-.858.277-1.73.303-2.605a13.01 13.01 0 0 0-.194-2.135c-.092-.462-.1-.94-.176-1.412-.328-1.983-.664-3.975-.992-5.966-.143-.84-.26-1.748-.412-2.622-.15-.874-.302-1.606-.453-2.412a2.521 2.521 0 0 0-.076-.244l-8.833-.74c-.176.387-.386.84-.563 1.219a23.758 23.758 0 0 0-.991 2.748c-.303 1.034-.622 2.067-.916 3.11-.157.52-.28 1.051-.37 1.588a7.48 7.48 0 0 0-.118 2.21c.013.08.033.159.059.235.277 0 .563.06.84.076a.387.387 0 0 0 .27-.067c.295-.238.55-.522.756-.84.218-.43.479-.84.706-1.261.126-.235.235-.496.386-.74v.294c-.042.538-.092 1.085-.134 1.63 0 .152-.076.32.092.421v.151c0 .563-.092 1.135-.109 1.681a27.405 27.405 0 0 0 0 3.11c.067.773.16 1.546.235 2.336l2.009.176a7.43 7.43 0 0 0 .193-1.68c-.067-1.236-.126-2.471-.21-3.698-.076-.967-.202-1.925-.294-2.883-.021-.13-.021-.264 0-.395.119-.663.142-1.339.067-2.008v-.387l.765.067c0 .412 0 .84.042 1.244s0 1.067 0 1.597c0 .84.092 1.68.143 2.521.042.664.126 1.32.16 1.983.033.664 0 1.11.041 1.681.016.28.016.56 0 .84.11.404.05.774-.008 1.21z" fill="#EFB8A9" style="mix-blend-mode:multiply"/><path fill="#00303C" style="mix-blend-mode:multiply" d="M78.3333152 75.3751211L45.3645784 159.171011 58.8613389 165.104207 92.3259093 86.3927132 89.619834 75.1398102"/><path fill="#00303C" style="mix-blend-mode:multiply" d="M105.839478 76.0138221L119.537933 159.179415 106.494987 162.456959 88.6701865 75.1398102"/><path d="M41.474 25.867c1.218.084 2.344.152 3.462.253l9.177.84 5.606.462 7.857.622c1.16.092 2.311.202 3.471.311.235 0 .47.05.756.084.05.277.079.558.084.84-.168 2.379-.352 4.757-.529 7.144-.1 1.462-.202 2.924-.32 4.387-.05.571-.134 1.143-.21 1.764-.24.016-.482.016-.722 0-2.95-.294-5.883-.596-8.866-.84-1.681-.168-3.362-.31-4.992-.462h-.463c-.065.218-.118.44-.16.664-.192 1.428-.369 2.849-.545 4.277-.379 3.043-.748 6.093-1.135 9.144a3589.276 3589.276 0 0 1-2.151 16.757c-.185 1.463-.37 2.917-.563 4.37-.395 3.051-.84 6.093-1.194 9.136-.16 1.319-.227 2.647-.378 3.966-.16 1.488-.378 2.967-.563 4.454-.05.47 0 .95-.1 1.42-.37 2.396-.766 4.782-1.144 7.17-.16 1.05-.294 2.1-.42 3.142l-1.009 8.135-.84 6.723c-.067.538-.193 1.068-.302 1.63-.389.123-.8.155-1.202.093l-6.43-.496c-.924-.058-1.84-.1-2.756-.168-.37 0-.74-.084-1.092-.126a1.496 1.496 0 0 1-.101-1.033c.227-2.79.47-5.572.697-8.404.219-2.622.42-5.236.64-7.858.243-2.992.495-5.984.739-8.975.21-2.589.411-5.169.622-7.757.246-2.992.495-5.984.748-8.976.21-2.521.394-5.101.605-7.647.243-2.992.504-5.992.748-8.984.21-2.58.403-5.169.613-7.749.252-2.991.501-5.986.748-8.984.21-2.58.403-5.168.622-7.756.244-3.026.504-6.051.756-9.077.06-.68.101-1.361.152-2.042.008-.075.042-.21.084-.454z" fill="#F88D2B" style="mix-blend-mode:multiply"/><path d="M38.717 139.136h-1.849c-.31 0-.412-.126-.378-.462.059-.614.126-1.219.218-1.824a29.06 29.06 0 0 1 1.06-4.47c.15-.471.31-.95.504-1.404.154-.378.261-.773.319-1.177.076-.546.227-1.076.361-1.68h-.84c-.05.21-.126.42-.16.638-.138.752-.338 1.491-.596 2.21-.236.706-.412 1.437-.614 2.16-.202.723-.353 1.219-.496 1.832-.241.925-.399 1.87-.47 2.824 0 .151 0 .32-.143.412-.042 0-.05.134-.059.21 0 .21 0 .42-.05.655l-1.597-.05a1.773 1.773 0 0 1-.067-1.16c.084-.58.16-1.168.277-1.731.185-.84.386-1.756.639-2.622.252-.866.512-1.513.773-2.278.218-.63.512-1.218.773-1.832.152-.43.281-.867.386-1.31h-.722a26.624 26.624 0 0 0-1.387 3.537c-.227.673-.462 1.345-.647 2.034-.185.69-.378 1.53-.546 2.303-.076.353-.126.706-.194 1.059-.277.328-.168.756-.26 1.134v.311c0 .101 0 .336-.042.521l-1.773-.059a3.042 3.042 0 0 1-.152-.663 16.17 16.17 0 0 1 0-2.63c.1-.706.252-1.402.454-2.085.151-.454.21-.933.336-1.387l1.681-5.807c.244-.84.462-1.68.706-2.521.244-.84.496-1.563.74-2.345.03-.077.063-.153.1-.227l8.808.26c.126.404.286.841.412 1.27.276.936.498 1.887.664 2.849.176 1.067.37 2.134.546 3.202.092.533.151 1.072.176 1.613.067.74.018 1.485-.143 2.21-.021.081-.05.16-.084.236h-.84a.361.361 0 0 1-.26-.101 3.362 3.362 0 0 1-.656-.933c-.16-.454-.37-.89-.546-1.336-.101-.252-.177-.521-.303-.782v.286c0 .546 0 1.093-.05 1.639 0 .151 0 .328-.152.412a.219.219 0 0 0 0 .143c0 .571-.05 1.134-.1 1.68a29.01 29.01 0 0 1-.387 3.076c-.16.765-.336 1.521-.513 2.294l-2.075-.126a6.563 6.563 0 0 1 0-1.68c.21-1.219.411-2.43.638-3.64.194-.949.42-1.89.63-2.831.022-.131.022-.265 0-.395-.04-.675.017-1.351.169-2.009v-.378h-.773a35.048 35.048 0 0 0-.378 2.815c-.076.84-.295 1.68-.438 2.521-.126.647-.277 1.295-.403 1.95-.126.656-.16 1.101-.235 1.68a7.774 7.774 0 0 0-.093.841c.042.311.093.647.101 1.118z" fill="#EFB8A9" style="mix-blend-mode:multiply"/></g></svg>