<svg xmlns="http://www.w3.org/2000/svg" viewBox="0 0 699.96 892.94"><defs><style>.cls-1{isolation:isolate}.cls-2{fill:#f88d2b}.cls-2,.cls-3,.cls-4,.cls-5,.cls-6,.cls-7{fill-rule:evenodd}.cls-3{fill:#fff}.cls-4,.cls-7{fill:#00303c}.cls-4,.cls-5,.cls-6{mix-blend-mode:multiply}.cls-5{fill:#d0af21}.cls-6{fill:#c49a6c}</style></defs><title>hp_illoAsset 1</title><g class="cls-1"><g id="Layer_2" data-name="Layer 2"><g id="Layer_1-2" data-name="Layer 1"><path class="cls-2" d="M208.3 844.78a25.8 25.8 0 0 0 .27 3.61 15.82 15.82 0 0 1 .27 2.46c0 .36-.52 1-.82 1-2.08.09-4.16 0-6.35 0v-7.37c0-2.09.26-4.17.29-6.27 0-1.87-.07-3.73-.14-5.6 0-1-.15-1.93-.18-2.89 0-1.17-.06-2.36 0-3.53s.68-2.15.56-3.15c-.41-3.44-1-6.8-.64-10.36.29-2.63-.08-5.37 0-8.05.1-6 .36-12.09.4-18.14 0-4.17-.23-8.34-.28-12.52v-11.83-7.22c0-1.77-.19-3.54-.27-5.31a9.14 9.14 0 0 1 0-1.28c.09-2.9.25-5.79.28-8.68.06-3.83 0-7.67 0-11.5v-4.82c0-1 .31-2 .29-3-.09-4-.24-7.88-.33-11.82v-3.34c.09-3 .23-6 .32-9 .05-1.55 0-3.11 0-4.65 0-2.66-.54-5.24-.16-8 .35-2.37-.43-4.93-.42-7.41 0-3 .38-6.07.56-9.09a9.13 9.13 0 0 0-.09-1.65c-.15-1.55-.47-3.1-.48-4.66-.07-4.67 0-9.34 0-14 0-.6.15-1.2.18-1.8 0-1 .13-2.08.1-3.11 0-.78-.26-1.54-.28-2.32v-7.78c0-6 .11-12 .6-18 .22-2.56 0-5.15 0-7.73l-1.31-.3c1-.75 1.14-1.38.52-2.54-1.28-2.41-2.3-5-3.38-7.53s-2-4.93-3-7.37c-1.79-4.34-3-9-5.42-13-1-1.71-1.46-3.94-2.14-6a28.23 28.23 0 0 0-1.15-3.65c-1-2-2.28-3.88-3.19-5.95-1.86-4.19-3.61-8.44-5.3-12.72-.8-2-1-4.5-2.1-6.12-1.69-2.43-2.24-5.36-3.4-8-.72-1.65-1.19-3.45-1.9-5.1-1-2.38-2.27-4.64-3.26-7.06-1.35-3.31-2.46-6.78-3.86-10.07-1.76-4.18-3.74-8.23-5.54-12.39-1.7-3.94-3.27-8-4.95-11.95-2.06-4.82-4.2-9.6-6.27-14.42-1.53-3.62-3-7.28-4.49-10.91-.35-.82-.79-1.56-1.21-2.33-.11.07-.24.12-.36.19.07.62.15 1.25.16 1.39-.36.84-.76 1.34-.74 1.81 0 1.13.42 2.24.42 3.36 0 1.29-.28 2.57-.35 3.86s0 2.58 0 3.29c.16 1.26.32 2 .33 2.78s-.15 1.76-.11 2.63c.1 1.94.3 3.87.41 5.81 0 .25-.19.49-.25.76a8.36 8.36 0 0 0-.43 2.37c.22 2.1.59 4.11 0 6.29-.29 1.07.42 2.49.2 3.61-.68 3.27 1 6.56-.23 9.79-.15.4.22 1 .28 1.55a36.88 36.88 0 0 1 .3 4.18c-.06 2.19-.47 4.36-.42 6.52a33.71 33.71 0 0 0 .78 6.26c.72 3.35-1.55 6.63-.06 10 .06.15-.19.48-.29.74s-.37.77-.28.93c.87 1.44.2 2.82 0 4.27a8.67 8.67 0 0 0 .48 2.59 7.55 7.55 0 0 1 .37 1.87c-.13 1.89-.41 3.77-.57 5.65a25.94 25.94 0 0 0 0 2.79c0 2.11.06 4.23.13 6.34 0 1.19.11 2.39.25 3.57s.45 2.11.51 3.17c0 .5-.53 1-.55 1.53v9.84c0 .82.15 1.65.13 2.47 0 1.91-.16 3.82-.1 5.7.1 2.61.49 5.2.54 7.81s-.17 5.09-.26 7.63a5 5 0 0 0 0 1.29c.49 2.06 1.4 3.85.1 6.26-.71 1.33-.13 3.73.1 5.62s1.42 3.54-.13 5.32c-.26.28-.1 1.06-.1 1.61a28.4 28.4 0 0 0 .05 3.33c0 .34.52.62 1.06 1.18a12.68 12.68 0 0 0-.93 5.88c.2 3.16 1.08 6.15.28 9.54-.57 2.36-.85 5.38.66 7.47-.36.61-.83 1-.76 1.28.67 2.25-.47 4.85 1 7a1.89 1.89 0 0 1-.2 1.64c-.88.94-.58 1.86-.28 2.92.38 1.38 1 2.78-.12 4.2-.22.26.17 1.2.32 1.82a7.22 7.22 0 0 1 .4 1.09c.06.74 0 1.49 0 2.23v3.78h-.35l-.3-1.44a21.32 21.32 0 0 0 0 4.3c0 2.46-.13 4.93 0 7.38.05 1.43 1 3.55.55 4.13-1.55 1.84 1.46 3.88-.45 5.39-.1.07 0 .59.1.88.13.49.51 1 .49 1.48-.14 2.07-.52 4.13-.56 6.2a50 50 0 0 0 .37 5.61c.1 1.13.65 2.43.32 3.3s-.69 1.45.07 2.25c.17.17 0 .76 0 1.17l-.83-.21c.12 1.23.31 2.42.32 3.62s-.48 2.48-.17 3.46c.47 1.48-.46 3.19.8 4.55.33.37-.13 1.74-.22 2.71a6 6 0 0 1 .4 1.76c-.19 1.95-.55 3.88-.76 5.82 0 .3.44.68.9 1.37a3.73 3.73 0 0 1-.05 1.9c-.79 1.41-1.27 3.31-.46 4.25a3 3 0 0 1 .44 3.27h-6.61c-.15-2-.42-3.77-.43-5.59-.05-7.26 0-14.53 0-21.8 0-2.75-.27-5.49-.28-8.23-.05-6.53 0-13.08 0-19.62 0-3.36-.27-6.73-.28-10.09-.05-5.69 0-11.36 0-17 0-6.75-.19-13.49-.29-20.24v-5.75-5.28c.05-2 .3-4 .25-6-.07-2.47-.43-4.94-.56-7.41-.09-1.78.1-3.58 0-5.34-.14-1.59.26-3.09.13-4.72-.38-4.82-.35-9.68-.4-14.53v-15.53c-.06-6.19-.21-12.38-.3-18.58v-5.2-18.52a56.12 56.12 0 0 0-.33-6.62c-.27-2.18.32-4.23.15-6.45-.47-5.85-.33-11.77-.44-17.66 0-1.61.08-3.22 0-4.83-.08-3.06-.31-6.1-.29-9.15 0-1.79.37-3.59.55-5.39 0-.26-.19-.55-.21-.84-.1-1.55-.18-3.11-.23-4.66 0-.42.13-.83.13-1.25-.08-2.44-.23-4.88-.27-7.34a4 4 0 0 1 .41-2.24c.8-.92.28-1.39 0-2.21s-.6-2.57-.25-2.85c1.36-1.15.3-2.46.38-3.61s-.52-2.05-.56-3.1c-.17-4.09-.82-8.2.27-12.26a3.46 3.46 0 0 0-.09-1.23 14.65 14.65 0 0 1-.44-2.23c-.08-2 .32-3.87.08-5.92s.49-4.26.49-6.4c0-4-.27-7.94-.36-11.92-.12-5.1-.2-10.22-.2-15.33a40.12 40.12 0 0 1 .57-4.45 2.58 2.58 0 0 0-.06-1.08 7 7 0 0 1 0-5.55 4.63 4.63 0 0 0-.07-1.6c0-.88-.08-1.78-.07-2.68 0-1.14.5-2.65 0-3.35-.8-1.25-.47-2.3-.21-3.4.4-1.66.85-3.21-.17-4.82-.22-.32.13-1.13.21-1.71a5.36 5.36 0 0 0 .27-1.92 15.64 15.64 0 0 1 0-9.19 1.65 1.65 0 0 0 0-.73 9.3 9.3 0 0 1-.52-2.61c.14-1.41-.56-2.87.46-4.36.41-.61-.42-2.25-.44-3.44-.08-4.3-.08-8.59-.06-12.88 0-1.09.29-2.18.27-3.25 0-2.15-.27-4.28-.27-6.43V187.86h247.5V189c0 25.88-.11 51.77.05 77.65.09 12.17-.69 24.33.49 36.5.36 3.7-.34 7.54-.52 11.32 0 1 .06 2 0 3-.16 2.11-.61 4.21-.61 6.32v117.65a22.88 22.88 0 0 0 .78 6.14c2.27 8.16 4.71 16.26 7.1 24.38s4.77 16.23 7.15 24.36 4.77 16.36 7.21 24.52 4.68 16.06 7.05 24.08c6.67 22.6 13.22 45.24 20 67.82 1.18 4 .75 7.88.8 11.84.05 3.35-.13 6.72-.26 10.07-.13 3.1-.39 6.21-.49 9.32a14.76 14.76 0 0 0 .47 2.65c.08.43.28 1.13.13 1.27-.93.84-.43 1.69-.26 2.69a34.4 34.4 0 0 1 .16 4.43v3.14a65.58 65.58 0 0 1 0 7.68c-.44 3.6-.14 7.2-.3 10.79-.15 3.2.6 6.46-.58 9.61a2.83 2.83 0 0 0 .15 1.58 8.62 8.62 0 0 1 .29 4.84 16 16 0 0 0-.13 3.81c-.05 2.25-.09 4.51-.16 6.77 0 1.1-.24 2.21-.17 3.3.1 1.54.58 3.06.54 4.58-.08 2.43.4 5-.68 7.29a1.43 1.43 0 0 0 .27 1.11c.82.83.27 1.43-.09 2.18a4.29 4.29 0 0 0-.47 1.93c.16 2 .46 4 .7 5.93a1.18 1.18 0 0 1 0 .54c-1 1.45-.32 2.84 0 4.27a4.36 4.36 0 0 1 .07 1.49 41.41 41.41 0 0 0-.57 4.54c0 2 .34 3.94.47 5.92a9.13 9.13 0 0 1-.19 1.78h-.29c-.1-.37-.19-.74-.29-1.1-.13 0-.26 0-.38.06a12.47 12.47 0 0 0 .1 1.62 35.77 35.77 0 0 1 .93 4.17c.13 1.41.29 3.17-.3 4.22a3.76 3.76 0 0 0-.23 3.14c.36 1.68 1.07 3.3.4 5.13-.11.33-1.1.89-.09 1.43-.92 1.52-.24 3.16-.29 4.76 0 1.37-.35 2.73-.47 4.11s-.86 2.83.53 3.89a.92.92 0 0 1 .25.63v6c0 .3-.21.83-.35.83-1.26.07-.84 1-.76 1.83.05.57.05 1.14.07 1.82 1.24.43 1.34 1.5.83 2.89a3.22 3.22 0 0 0-.1 1.17c0 2.49.58 4.94-.24 7.5-.51 1.58-.3 3.49-.34 5.26v7.22c0 .69.58 1.4.55 2.07-.06 1.43-.5 2.85-.52 4.27s-1.49 3 .19 4.33c.08.07 0 .35 0 .53-.17 2.49-.39 5-.46 7.5a34.32 34.32 0 0 0 .34 3.46 19.58 19.58 0 0 1 .1 3.42c-.18 2.15-1.14 4.19-.35 6.49.27.8.55 2.25-1 2.27h-7c.07-.78.18-1.42.18-2.06 0-3.7.09-7.4 0-11.11-.06-2.35-.31-4.7-.58-7-.2-1.78.6-3.26.83-4.86a53.44 53.44 0 0 0 .09-7.6c0-2.59-.23-5.18-.22-7.77 0-4.37.15-8.73.22-13.09 0-.6-.14-1.2-.17-1.8a10.11 10.11 0 0 1-.06-2.74 13.82 13.82 0 0 0-.16-7.83 2.69 2.69 0 0 1 0-1.32c.19-1 .52-1.88.65-2.84.37-2.46-.46-4.85-.09-7.43.48-3.19.11-6.56.11-9.85v-5c.09-2.76.28-5.52.28-8.28 0-3.3-.17-6.6-.31-9.89 0-1-.48-2.17-.22-3 .76-2.41.29-4.89.5-7.31.33-3.8-.34-7.75.21-11.49.42-2.9.1-5.66.1-8.47 0-3.16-.28-6.34-.22-9.51.09-4.9.48-9.79.56-14.69.05-3.74-.38-7.5-.24-11.24s-.65-7.25.24-10.89a12.51 12.51 0 0 0-.18-5.19c-.32-1.66.18-3.51.19-5.27V633c0-3.33.12-6.65.17-10q0-3 .1-5.91c0-2.2-.85-3.32-2.71-3.32h-18.06c-2.61 0-5.22-.21-7.83-.23-1.39 0-2.79.24-4.17.22-3.16-.06-6.31-.17-9.46-.36-1.17-.07-1.56.5-1.59 1.78q-.13 6-.32 12.1c0 1.2-.25 2.4-.23 3.59 0 3.28.18 6.56.21 9.82 0 .59-.48 1.21-.45 1.8.11 2.92.63 5.83-.12 8.75a12.35 12.35 0 0 0-.31 3.23c0 2.59.19 5.17.27 7.76v2.79c0 3 1.09 6-.24 8.93a2.37 2.37 0 0 0 .08 1.25 8.76 8.76 0 0 1 .46 2.09c-.2 1.92-.54 3.79-.83 5.69a5.65 5.65 0 0 0-.06 1.09c.09 4.2.17 8.4.33 12.59 0 1.23.46 2.43.51 3.66 0 1 1 2.37-.38 2.92a22.83 22.83 0 0 1 .49 4.26c0 .55 1.28 2.55-.87 2v1.46l.93-.42a34.48 34.48 0 0 0-.32 6 36 36 0 0 1 .29 7.33 25.91 25.91 0 0 1-.43 5.06 12.67 12.67 0 0 0-.21 6.63c.52 2.43 1.19 4.83.21 7.33-.12.32.11.79.11 1.19a19 19 0 0 1-.14 3.12c-.23 1.25-.57 2.43.34 3.49a.91.91 0 0 1 .25.62c-.47 2.52.58 5.42-1.48 7.38a6.28 6.28 0 0 1 .33 7.08 3.92 3.92 0 0 0 0 2.23 22.25 22.25 0 0 1 1 3.35c.13 2.45.48 5.06-1.75 6.82H369c0-.65 0-1.19-.09-1.74h-.15c-.07.39-.15.79-.21 1.18h-.14v-8.15l.5 2.12c.19-.38.32-.52.32-.66 0-3.7-1.32-7.4 0-11.12a3.93 3.93 0 0 0-.09-1.62c-.25-1.6-.55-3.19-.82-4.79s1.45-3.26 0-4.91c-.07-.06 0-.42.06-.49 1.7-1.37.62-3 .38-4.63 0-.24-.29-.59-.23-.69 1.07-1.59.28-3.46.55-5.17.17-1-.42-2.21-.43-3.35 0-.74.52-1.49.56-2.25.09-2 .1-4 0-5.93-.19-4.27.49-8.59-.58-12.81a3.83 3.83 0 0 1 0-1.47 23 23 0 0 0 .56-3c.06-4.32.09-8.64 0-12.94 0-1.93.5-4-.56-5.79a1.82 1.82 0 0 1 0-1.43c1.19-1.95.79-4 .34-5.92-.22 0-.39-.13-.38-.21a23.52 23.52 0 0 0 .59-3.19c.17-3.07.25-6.15.34-9.22a35.76 35.76 0 0 0 0-4.27c-.09-.72-.86-1.4-.86-2.08 0-2.2.32-4.4.45-6.6.17-3.26.32-6.53.39-9.79 0-.75-.55-1.52-.53-2.26.1-2.18.41-4.35.53-6.53.16-3.3.26-6.6.33-9.91a13.12 13.12 0 0 0-.33-2.26c-.27.4-.43.63-.58.87l-.47-.09v-13.5c-2.74-.15-5.12-.4-7.51-.4-4 0-8.08.28-12.11.27-4.29 0-8.59-.2-12.88-.28q-10.2-.21-20.38-.37h-8.86c-4.21-.08-8.42-.31-12.63-.35h-40c-1.2 0-2.4-.35-3.62-.33-2.12 0-4.27.34-6.4.32-4.29 0-8.58-.22-12.86-.35-3-.1-6-.27-9.07-.35-1.24 0-2.5 0-3.76.08s-2.44 0-3.66.05a3.82 3.82 0 0 0-1.3.22 11.21 11.21 0 0 1-1.55.7 17.53 17.53 0 0 1-2.69 0c0 3.68.11 7.17 0 10.63s1.16 6.88-.27 10.26c-.09.2.11.56.12.87.12 1.72.62 3.6.2 5.15-.48 1.78-1 3.24-.08 5 .25.5-.1 1.37-.13 2.09a3.69 3.69 0 0 0 .16.79c.5 2.25.82 4.48-.6 6.53a7.43 7.43 0 0 1 .45 5.69c-.58 2-.05 4.53 0 6.82.12 3.08.29 6.16.43 9.24 0 .39-.07 1-.28 1.16-1.83 1.26-.77 2.75-.3 4.21.23.72.41 1.46.63 2.2l-.3.14c-.27-.24-.53-.45-.8-.68.09.85.65 1.44.68 2.06a15.86 15.86 0 0 1-.53 2.41c-.08.63-.08 1.78.15 1.89 1.32.63.95 2.12.65 2.74-.5 1.08-.13 1.74 0 2.66a17.69 17.69 0 0 1-.22 2.85c.05 3.21.24 6.4.25 9.59a18.5 18.5 0 0 1-.55 2.9c-.05.39-.09 1.06.07 1.19a1.12 1.12 0 0 1 0 1.9c-1.29 1.09-.8 1.9.1 2.69-1.24 1.66-.88 3.33-.2 5 .89 2.27 1 4.49-.63 6.67l1.32.16c-.31 2.68 0 5.24-.85 7.94a11.31 11.31 0 0 0 .59 7.84 3.84 3.84 0 0 1-.44 3.71c-.5.77-.39 2.23-.29 3.35a15.65 15.65 0 0 0 1 3.08c-.67-.35-.91-.49-1.24-.65v2c.35.13.86.25.87.36v12.48h-.3c0-.64-.07-1.28-.1-1.92a18.38 18.38 0 0 0-.67 3.63 13.65 13.65 0 0 0 .14 2.71c.31 2.07-.3 4.16.5 6.3.61 1.66.47 3.72.71 6l-1.31-1.29c.36 2.87-.59 5.58.91 8 .14.22-.14 1-.37 1.33-.78 1.35-.63 2 .5 2.62.07 1.56.13 3 .17 3.84-.61.65-1.05.89-1.11 1.25-.39 2.06 1 4.12 0 6.25-.1.21.26.73.43 1.11.27.57.54 1.13.82 1.69-1.45 1.14-1.6 1.78-.84 3.4.24-.41.45-.76.68-1.13l.35.28a9.47 9.47 0 0 0-1 1.76 1.75 1.75 0 0 0 .07 1.35c1 1.72 1 3.1-.14 4.51 1.45.43.85 1.42.52 2.46-.28-.55-.52-1-.69-1.32-1.29 3.2 1.07 6 .57 9.16a6.86 6.86 0 0 0-.4 1.93c.24 1.48.68 2.92 1 4.37l-.62-.14c-.23.37-.45.75-.65 1.12l.94.49V843c-.17-.8-.29-1.35-.48-2.29a37.32 37.32 0 0 0-.46 4.07zM140.94 443h4.52c1.85.05 3.69.25 5.53.25H372V322H141z"/><path class="cls-3" d="M462.42 819.48c-6.8 11.27-11.55 22-17.54 32.39-5.62-1-10.21-4.22-15.22-6.31s-10-4.66-15.26-7.14a17.28 17.28 0 0 1 .74-3.39q10.33-24.56 20.78-49.06a21.34 21.34 0 0 1 1.18-2.1 27.41 27.41 0 0 1 3.78 1.08c11.81 5.21 23.58 10.55 35.43 15.7a11.9 11.9 0 0 1 5.87 5.46c13.74 24 27.61 48 41.38 72a21.4 21.4 0 0 1 2.38 5.68 7.33 7.33 0 0 1-9.69 8.47 23.23 23.23 0 0 1-6.1-3.15 119.29 119.29 0 0 1-23.93-22.88c-8.61-11-14.5-23.5-19.75-36.33-1.21-2.99-2.34-6-4.05-10.42z"/><path class="cls-4" d="M462.42 819.48c-6.8 11.27-11.55 22-17.54 32.39-5.62-1-10.21-4.22-15.22-6.31s-10-4.66-15.26-7.14a17.28 17.28 0 0 1 .74-3.39q10.33-24.56 20.78-49.06a21.34 21.34 0 0 1 1.18-2.1 27.41 27.41 0 0 1 3.78 1.08c11.81 5.21 23.58 10.55 35.43 15.7a11.9 11.9 0 0 1 5.87 5.46c13.74 24 27.61 48 41.38 72a21.4 21.4 0 0 1 2.38 5.68 7.33 7.33 0 0 1-9.69 8.47 23.23 23.23 0 0 1-6.1-3.15 119.29 119.29 0 0 1-23.93-22.88c-8.61-11-14.5-23.5-19.75-36.33-1.21-2.99-2.34-6-4.05-10.42z"/><path class="cls-3" d="M102.08 729.19h-3.8c-23 0-46 .06-69.06-.05-5.66 0-11.31-.65-17.3-1a19.39 19.39 0 0 1-.35-2.46c-.09-4.15-.12-8.29-.21-12.44q-.7-37.93-1.43-75.89-.59-31.27-1.23-62.51l-1.88-95.18q-.62-31.11-1.23-62.21-.95-47.58-1.88-95.18-.62-31.1-1.23-62.19-.93-47.6-1.89-95.19C.41 155.14.2 145.4 0 135.65v-3c4.32 0 8.48.43 12.5-.09 7.33-1 14.66-.48 22-.49q74.19-.12 148.4 0h3.84v93.8l-78.13 2.37c-2.18 167.04-4.34 333.76-6.53 500.95z"/><path class="cls-3" d="M176.87 132l267.46 1.39C427.46 233.31 412.72 333.2 398 433.3l-204.63.47c-.32-2.6-.68-5.33-1-8.07q-3.25-32.94-6.48-65.92-3.07-31.26-6.21-62.51-1.35-13.45-2.72-26.91c-.11-1.14-.11-2.28-.11-3.43V132z"/><path class="cls-5" d="M176.87 132l267.46 1.39C427.46 233.31 412.72 333.2 398 433.3l-204.63.47c-.32-2.6-.68-5.33-1-8.07q-3.25-32.94-6.48-65.92-3.07-31.26-6.21-62.51-1.35-13.45-2.72-26.91c-.11-1.14-.11-2.28-.11-3.43V132z"/><path class="cls-5" d="M102.08 729.19h-3.8c-23 0-46 .06-69.06-.05-5.66 0-11.31-.65-17.3-1a19.39 19.39 0 0 1-.35-2.46c-.09-4.15-.12-8.29-.21-12.44q-.7-37.93-1.43-75.89-.59-31.27-1.23-62.51l-1.88-95.18q-.62-31.11-1.23-62.21-.95-47.58-1.88-95.18-.62-31.1-1.23-62.19-.93-47.6-1.89-95.19C.41 155.14.2 145.4 0 135.65v-3c4.32 0 8.48.43 12.5-.09 7.33-1 14.66-.48 22-.49q74.19-.12 148.4 0h3.84v93.8l-78.13 2.37c-2.18 167.04-4.34 333.76-6.53 500.95zM650.56 92.34a81.19 81.19 0 0 1-1.19 20.4c-2.49 15.77-4.84 31.56-7.25 47.33q-3.92 25.5-7.81 51-3.57 23.19-7.08 46.4l-7.24 47.33q-3.56 23.34-7.11 46.72t-7.2 47q-2 13.2-4 26.42c-.17 1.11-.4 2.22-.68 3.73l-133.57-2.24c-.49-1.08-1-2.1-1.42-3.14q-26-61.08-51.94-122.15a9.45 9.45 0 0 1-.66-5.4c2.65-16.68 5.22-33.38 7.82-50.07q3.93-25.35 7.87-50.68 4.2-27 8.36-54.07c.32-2 .67-4 1.14-6.76.68 1.25 1.09 1.88 1.39 2.56 9.53 21.4 19.1 42.77 28.51 64.2 2.36 5.39 4.23 11 6.3 16.5l11.28 29.86c3.54 9.49 7 19 10.55 28.49q7.74 20.74 15.56 41.46c3.4 9 7 17.87 10.33 26.83 2.5 6.64 4.84 13.34 7.48 20.66.59-3.18.77-5.79 1.6-8.18 1.1-3.19 1-6.52 1.76-9.75s1.4-6.43 1.92-9.69c2.26-13.9 4.44-27.81 6.66-41.71q4.23-26.4 8.49-52.78 4.17-25.95 8.33-51.88l8.48-52.73q3.56-22.09 7.09-44.2c.06-.4.16-.8.3-1.43z"/><path class="cls-4" d="M110.33 48.13c-.83 2-.18 3.23 1.44 4.36 5.35 3.74 10.55 7.72 15.91 11.41a33.53 33.53 0 0 0 6.77 3.6 222.13 222.13 0 0 0 26.25 9.14c8 2.09 16.06 4.08 24.17 5.71 4.13.84 8.43.9 12.67 1.23 6.7.53 13.41 1.23 20.12 1.36a102.44 102.44 0 0 0 14.72-1 66.23 66.23 0 0 0 18.37-5.36 3.5 3.5 0 0 0 2.46-2.58c1.5-7.35 3.11-14.67 4.71-22.22-3.84-2.57-7.73-5.09-11.51-7.77a43.9 43.9 0 0 0-10.79-5.38c-12.1-4.3-24.66-6.41-37.33-7.57-8.15-.75-16.37-.67-24.54-.64a112 112 0 0 0-12.08 1.17c-4.09.44-8.25.73-12.32 1.5a99.2 99.2 0 0 0-13.73 3.45c-7.56 2.57-15 5.59-22.45 8.44-1.02.33-1.99.8-2.84 1.15z"/><path class="cls-6" d="M375.13 91.12a25.88 25.88 0 0 0-2.72-1.57c-6.57-2.74-12.47-6.85-18.29-11.17a78.21 78.21 0 0 1-10.55-8.87 109.76 109.76 0 0 1-13-16c-3.26-5.12-6.26-10.45-9.37-15.71a84.23 84.23 0 0 1-8.47-19.86c-.72 1.13-1.27 1.82-1.65 2.58a134.28 134.28 0 0 1-15.86 25.63c-5.18 6.49-10.65 12.58-17.16 17.29-7 5.07-14.34 9.23-22.52 11.27-1.68.43-3.31 1.14-5.28 1.82.22 2.62.29 5.07.66 7.48.75 4.89 1.52 9.77 2.52 14.59a88.47 88.47 0 0 0 2.9 10.64c2.14 6.23 4.38 12.45 6.84 18.54 1.36 3.36 3.29 6.4 4.89 9.63a2.1 2.1 0 0 0 2.23 1.39h83.22a4.59 4.59 0 0 0 4.69-2.65 134.73 134.73 0 0 0 10.46-22.5c.48-1.45 1.15-2.81 1.76-4.21 2.57-5.67 3.44-11.89 4.7-18.32z"/><path class="cls-4" d="M374.62 94.1c.17-1.92.37-3.31.37-4.69 0-5.2.34-10.43-.07-15.57-.57-7.61-1.79-15.07-4.84-22.08-4-9.31-9.16-17.58-16-24.46a32 32 0 0 0-14.49-8.37 91.66 91.66 0 0 0-14.36-2.34c-4.1-.44-8.22-.37-12.36-.48-1 0-2 .11-3.41.2a28.35 28.35 0 0 0 2.49 7.08c3.48 6.69 6.9 13.44 10.7 19.9 3.46 5.84 7.21 11.5 11.16 16.92a106.68 106.68 0 0 0 18.71 19.46 140.35 140.35 0 0 0 19.7 13.26c.59.37 1.26.63 2.4 1.17z"/><path class="cls-4" d="M314.38 16.3c-4.08-.68-7.72.58-11.39 1.29-5.91 1.15-11.83 2.22-17.54 4.64C272.82 27.58 263 37 256.26 50.59c-2.27 4.63-3.61 10-4.74 15.26-1 4.73-1.25 9.73-1.77 14.6a7.75 7.75 0 0 0 .28 1.8 96.52 96.52 0 0 0 12.86-5c14.11-7.16 25.46-18.5 35.3-32.25a194 194 0 0 0 15.11-25.9c.41-.83.7-1.74 1.08-2.8z"/><path class="cls-7" d="M325.47 98.19c.6-1.82.84-3.25 0-4.67-5.18-8.5-10.34-17-15.68-25.78l-4.85 1.9c2.41 7.91 7.58 14.09 11.89 21.3-6.22.39-12-.14-17.9.19-1.08 1.85-.82 3.83-.7 6.08 9.03.64 18.04.93 27.24.98zm1.71 6.81h-5c-1.59 3.25-2.51 7.06-5.94 9.34-2.49-1-5.08-1.74-6.75-4a16.75 16.75 0 0 1-2-3.22c-.74-1.63-1.64-2.63-3.6-2.42a39.57 39.57 0 0 1-4.23 0 10.76 10.76 0 0 0 .52 2.8c1.05 2.12 2.18 4.19 3.4 6.23a10 10 0 0 0 1.82 2c4.12 3.87 9.2 4.32 14.46 3.81a4.07 4.07 0 0 0 2.19-1.43 18.4 18.4 0 0 0 5.13-13.11z"/><path class="cls-3" d="M286.82 63.82c-4.29-.25-8.92 2.7-8.36 7.55a5.6 5.6 0 0 0 2.22 3.4 12.79 12.79 0 0 0 5.52 2.75 24 24 0 0 0 11.55.5 5.85 5.85 0 0 0 3.72-2.42c1.65-2.26 2.28-4.62 1.32-7.23a4.85 4.85 0 0 0-3.29-3.1 17.93 17.93 0 0 0-3.53-.83c-3.04-.28-6.09-.44-9.15-.62z"/><path class="cls-7" d="M295.88 72.38a9.39 9.39 0 0 1 .29-1.19 6.77 6.77 0 0 0-1.61-6.64 2.36 2.36 0 0 0-.85-.46 22.88 22.88 0 0 0-2.34-.59c-1.49-.28-2.74.49-3.82 2a16.13 16.13 0 0 0-2.61 7.5 3 3 0 0 0 .24 1.57 17.55 17.55 0 0 0 1.68 2.91c.94 1.26 4.19 1.8 5.48 1a6.69 6.69 0 0 0 3.11-4.48c.15-.55.29-1.12.43-1.66z"/><path class="cls-3" d="M321 63.55c-4.29-.23-8.9 2.71-8.33 7.55a5.47 5.47 0 0 0 2.2 3.42 13 13 0 0 0 5.53 2.73 24.08 24.08 0 0 0 11.54.52 6 6 0 0 0 3.72-2.42c1.64-2.29 2.3-4.62 1.33-7.23A4.91 4.91 0 0 0 333.7 65a17.82 17.82 0 0 0-3.54-.81c-3.03-.3-6.08-.44-9.16-.64z"/><path class="cls-7" d="M329.78 72.86a9.11 9.11 0 0 1 .38-1.15 6.79 6.79 0 0 0-1.06-6.77 2.22 2.22 0 0 0-.79-.52 23.89 23.89 0 0 0-2.3-.78c-1.44-.39-2.75.26-3.95 1.65a16.27 16.27 0 0 0-3.22 7.22 2.83 2.83 0 0 0 .16 1.59 17.67 17.67 0 0 0 1.43 3c.81 1.32 4 2.15 5.38 1.46a6.86 6.86 0 0 0 3.47-4.11c.2-.54.37-1.08.55-1.63z"/><path class="cls-6" d="M615.53 0h10.48c1.71 0 2.39.62 2.25 2.45-.25 3.34-.53 6.67-.92 10A155.93 155.93 0 0 1 622.05 37a79 79 0 0 1-2.6 7.79 25 25 0 0 0-1.6 6.45c-.36 3-1.15 5.93-1.79 9.06h4.51c.27-1.15.64-2.31.82-3.51a78.76 78.76 0 0 1 3-12.16c1.23-3.91 2.13-7.94 3.14-11.92.86-3.36 1.8-6.69 2.5-10.08 1-5.1 2.12-10.21 2.2-15.48 0-.84-.22-1.75.73-2.29.23-.13.25-.76.29-1.18.08-1.14.13-2.28.2-3.57h9.06c1.19 2 .86 4.2.59 6.37-.4 3.17-.7 6.37-1.3 9.49-.93 4.82-1.92 9.65-3.16 14.4-1.13 4.24-2.66 8.38-4 12.58-1.13 3.49-2.71 6.77-4.07 10.15a68.34 68.34 0 0 0-2 7.21h4.14a139.37 139.37 0 0 0 7.25-19.59c1.16-3.72 2.41-7.41 3.36-11.18 1.05-4.19 1.85-8.45 2.68-12.7.38-1.92.6-3.86.91-5.79v-.22c1.54-1.81.84-4.15 1.28-6.22a10.72 10.72 0 0 0 0-1.7c0-.92.12-1.83.19-2.84h10a17.43 17.43 0 0 1 1 3.64c.2 4.78 1 9.52.42 14.33a71 71 0 0 1-2.2 11.5c-.75 2.48-1 5.08-1.69 7.59-2.85 10.69-5.75 21.35-8.62 32-1.24 4.67-2.34 9.41-3.61 14.08-1.18 4.32-2.51 8.6-3.78 12.89-.13.42-.34.8-.54 1.29h-49.94c-.83-2.21-1.8-4.52-2.59-6.89a130.42 130.42 0 0 1-4.22-15.47c-1.2-5.79-2.48-11.56-3.62-17.37a58.52 58.52 0 0 1-1.28-8.8c-.19-4-.68-8.1.41-12.11.1-.41.28-.8.44-1.28h4.89a2.16 2.16 0 0 1 1.49.49c1.36 1.59 3 3 3.86 5 1 2.44 2.27 4.8 3.34 7.22.61 1.36 1.06 2.79 1.82 4.2 0-.52.12-1 .12-1.57v-9c0-.82-.28-1.76.74-2.26.16-.08.24-.51.26-.77.09-3.12.07-6.23.26-9.35a140.15 140.15 0 0 1 1.7-16.86c.76-4.19 1.64-8.36 2.48-12.62H611a37 37 0 0 1 .24 9.39c-1 6.69-1.93 13.37-3.05 20-.89 5.23-2.06 10.38-3.08 15.57a7.07 7.07 0 0 0-.07 2.15c.54 3.71-.07 7.35-.6 11-.09.63-.09 1.27-.14 2.08h4.38c.29-2.22.63-4.48.87-6.76.32-2.88.63-5.75.78-8.65.28-4.72 1.39-9.28 2.1-13.91.57-3.58 1.35-7.13 1.91-10.7.46-3 .74-6 1.07-9.07a45 45 0 0 0 .41-4.75c-.01-1.86-.18-3.88-.29-6.3zM54.64 826h-11c-1.79 0-2.51-.65-2.35-2.57.25-3.51.55-7 1-10.47a163.77 163.77 0 0 1 5.54-25.79 84.34 84.34 0 0 1 2.7-8.17 26.07 26.07 0 0 0 1.68-6.76c.37-3.14 1.21-6.22 1.88-9.5h-4.74c-.28 1.2-.67 2.43-.85 3.68a82.4 82.4 0 0 1-3.13 12.75c-1.29 4.1-2.23 8.33-3.29 12.5-.9 3.52-1.89 7-2.62 10.58-1.09 5.34-2.23 10.7-2.31 16.22 0 .88.23 1.84-.77 2.41-.24.13-.25.8-.3 1.23-.09 1.2-.13 2.4-.21 3.75h-9.5c-1.25-2.09-.9-4.41-.61-6.68.41-3.32.73-6.67 1.36-10 1-5.06 2-10.12 3.31-15.1 1.19-4.45 2.79-8.79 4.21-13.19 1.18-3.66 2.84-7.1 4.26-10.65a68.3 68.3 0 0 0 2.1-7.56h-4.33a147.38 147.38 0 0 0-7.59 20.54c-1.22 3.91-2.53 7.77-3.52 11.73-1.11 4.39-1.94 8.86-2.82 13.31-.39 2-.63 4-.95 6.08v.22c-1.62 1.91-.88 4.37-1.34 6.53a9.73 9.73 0 0 0 0 1.79c-.05 1-.13 1.91-.2 3H9.67a18 18 0 0 1-1-3.81c-.21-5-1.1-10-.44-15a73.37 73.37 0 0 1 2.3-12.07c.78-2.6 1.09-5.33 1.77-8 3-11.2 6-22.38 9-33.59 1.31-4.9 2.46-9.86 3.79-14.77 1.24-4.53 2.63-9 4-13.52.13-.43.35-.83.57-1.35H82c.88 2.32 1.89 4.74 2.72 7.23a136.79 136.79 0 0 1 4.42 16.22c1.26 6.07 2.61 12.12 3.8 18.21a63.14 63.14 0 0 1 1.35 9.24c.2 4.22.71 8.49-.44 12.7-.1.42-.29.84-.46 1.34h-5.13a2.23 2.23 0 0 1-1.56-.52c-1.43-1.67-3.11-3.09-4-5.26-1-2.56-2.38-5-3.5-7.58-.64-1.42-1.11-2.92-1.91-4.4 0 .55-.12 1.09-.12 1.65v9.4c0 .86.28 1.85-.78 2.38-.17.08-.25.53-.27.8-.1 3.28-.08 6.54-.28 9.8A147.62 147.62 0 0 1 74 812.62c-.8 4.39-1.72 8.77-2.6 13.23h-12a39.29 39.29 0 0 1-.25-9.85c1.06-7 2-14 3.2-21 .93-5.48 2.16-10.89 3.23-16.32a7.17 7.17 0 0 0 .07-2.26c-.57-3.89.08-7.7.64-11.53.09-.66.09-1.34.14-2.18h-4.6c-.3 2.32-.65 4.69-.9 7.08-.34 3-.67 6-.83 9.07-.29 5-1.45 9.74-2.2 14.59-.59 3.75-1.41 7.47-2 11.22-.48 3.15-.77 6.34-1.12 9.51a46.92 46.92 0 0 0-.43 5c-.01 2.14.17 4.25.29 6.82z"/><path class="cls-3" d="M192.66 430.94L192.66 542.17 567.34 530.51 553.17 832.79 638.74 832.79 663.44 434.95 192.66 430.94z"/><path class="cls-4" d="M192.66 430.94L192.66 542.17 567.34 530.51 553.17 832.79 638.74 832.79 663.44 434.95 192.66 430.94z"/><path class="cls-4" d="M495.35 528.41L572.3 523.28 551.78 697.71 500.48 820.84 413.26 779.79 495.35 528.41z"/><path class="cls-4" d="M614.26 848.39c-1.6 13.06-1.56 24.81-2.8 36.72-5.52 1.42-11 .32-16.46.45s-11-.18-16.84-.3a18.66 18.66 0 0 1-.73-3.39q-.55-26.64-1-53.26c0-.69.14-1.37.24-2.41a29.39 29.39 0 0 1 3.89-.56c12.91 0 25.84 0 38.74-.12a12 12 0 0 1 7.59 2.59c22.35 16.33 44.77 32.54 67.15 48.83a22.18 22.18 0 0 1 4.49 4.21 7.34 7.34 0 0 1-5.41 11.7 23.16 23.16 0 0 1-6.85-.39 119.67 119.67 0 0 1-31.17-11.14c-12.37-6.56-22.82-15.52-32.85-25.1-2.36-2.22-4.61-4.5-7.99-7.83z"/></g></g></g></svg>