<svg width="461" height="367" viewBox="0 0 461 367" xmlns="http://www.w3.org/2000/svg"><title>hp_illo_mo1@1x</title><g transform="translate(.398 .365)" fill="none" fill-rule="evenodd"><path d="M308.516 226.328h-11.151c-.184-3.695-.322-7.343-.482-10.991h.16c.184.16.39.298.551.459 2.73 2.524 5.484 5.048 8.169 7.595.894.849 1.674 1.766 2.5 2.638l.253.184v.115z" fill="#EFB8A9"/><path d="M268.569 232.523c.849-.528 1.583-.941 2.294-1.4.336-.2.658-.423.964-.665a28.704 28.704 0 0 0 2.593-2.157c.607-.65 1.16-1.348 1.652-2.088a10.027 10.027 0 0 0 1.767-5.576 15.098 15.098 0 0 0-1.4-7.159 22.463 22.463 0 0 0-1.583-2.592c.152-.019.306-.019.459 0a9.43 9.43 0 0 0 3.166.596c1.08.12 2.172.066 3.235-.16 1.603-.3 3.183-.714 4.727-1.24.46-.199.947-.33 1.446-.39.343-.055.667-.197.94-.412.495-.37 1.008-.715 1.538-1.033a8.191 8.191 0 0 0 3.327-4.038h.114c.115 0 .321.344.46.528a17.69 17.69 0 0 1 3.257 7.457c.42 2.163.659 4.358.712 6.562.039 2.83-.246 5.655-.85 8.42a30.494 30.494 0 0 1-1.284 4.59 38.088 38.088 0 0 1-2.295 5.254c-.527.964-1.124 1.904-1.675 2.845-.204.4-.63.636-1.078.597H273.02a.918.918 0 0 1-.986-.551c-1.033-2.662-2.249-4.98-3.465-7.388z" fill="#EFB8A9"/><path d="M270.588 210.587c.21-.369.448-.722.711-1.055a137.01 137.01 0 0 1 3.144-3.19c.979-.829 2.049-1.545 3.19-2.133a19.48 19.48 0 0 1 2.477-1.285 23.128 23.128 0 0 1 5.713-1.4 12.62 12.62 0 0 1 6.746 1.17l1.767.941a.734.734 0 0 1 .413 1.056 6.883 6.883 0 0 1-1.652 2.455 13.905 13.905 0 0 1-3.006 2.294c-.309.204-.64.374-.986.505-2.111.711-4.2 1.514-6.356 2.088-2.303.699-4.75.77-7.09.206a33.866 33.866 0 0 1-4.36-1.193c-.16-.23-.39-.298-.71-.459z" fill="#00303C" style="mix-blend-mode:multiply"/><path d="M271.391 208.614l3.144 1.652a8.627 8.627 0 0 1 3.097 2.777 11.472 11.472 0 0 1 2.065 5.598 11.105 11.105 0 0 1-.711 5.782 12.115 12.115 0 0 1-4.13 4.98c-1.147.848-2.295 1.674-3.534 2.454a17.37 17.37 0 0 1-2.065 1.01c-.23-.643-.504-1.147-.642-1.675a61.232 61.232 0 0 1-.918-3.947c-.16-.917-.23-1.858-.298-2.776a19.664 19.664 0 0 1 0-2.845 28.406 28.406 0 0 1 .436-5.025c.183-.78.39-1.537.642-2.294a21.683 21.683 0 0 1 2.708-5.278 5.3 5.3 0 0 1 .206-.413z" fill="#00303C" style="mix-blend-mode:multiply"/><path d="M286.512 216.025c.208-.202.439-.38.688-.527a34.417 34.417 0 0 1 3.304-1.698 8.696 8.696 0 0 1 3.9-.666 5.828 5.828 0 0 1 2.043.597 2.294 2.294 0 0 1 1.17 2.065c0 1.216-.734 1.652-1.629 1.881-2.037.497-4.155.56-6.218.184a14.295 14.295 0 0 1-2.57-.734.803.803 0 0 1-.436-.39 4.91 4.91 0 0 1-.252-.712z" fill="#FFF"/><path d="M288.967 228.439h8.145c0 .458 0 .848-.114 1.284h-5.76c0 .23.161.413.253.482a17.668 17.668 0 0 0 2.776 1.996c.51.187 1.031.34 1.56.46l-.527 1.284a4.589 4.589 0 0 1-3.396-1.147c-.238-.233-.5-.44-.78-.62a5.094 5.094 0 0 1-1.974-2.294 5.507 5.507 0 0 1-.183-1.445zm4.428-15.259h-.459-.32c-.093 0 0 0 0 0a.94.94 0 0 0-.781.55c-.18.203-.307.448-.367.712v.597a5.231 5.231 0 0 0 .138 1.583c.047.18.108.357.183.528.104.239.227.469.367.688.13.189.345.3.574.298.35.035.704.035 1.055 0 .328.037.655-.072.895-.298l.23-.16a1.63 1.63 0 0 0 .481-1.308v-.804a4.589 4.589 0 0 0-.32-1.697 1.423 1.423 0 0 0-.322-.413 1.01 1.01 0 0 0-.826-.39l-.528.114z" fill="#00303C"/><path d="M355.645 259.276v39.007H223.16a7.48 7.48 0 0 1-.206-1.217v-5.552c0-.367 0-.734-.16-1.102a6.08 6.08 0 0 1-.23-1.79c.271-3.557.325-7.128.16-10.692 0-1.835-.206-3.648-.23-5.483-.022-1.836.138-3.74.161-5.622 0-.711-.16-1.445-.137-2.157 0-1.285 0-2.547.183-3.946l132.943-1.446zm-203.888 2.295v35.656H11.587v-33.775c11.587-.413 23.266-.298 34.922-.527 11.656-.23 23.404-.299 35.106-.413l34.922-.413 35.22-.528z" fill="#F88D2B" style="mix-blend-mode:multiply"/><path d="M355.392 291.537l104.49.252v4.199l-2.753.252a9.568 9.568 0 0 0-5.506 2.501 8.558 8.558 0 0 0-2.501 4.59 18.631 18.631 0 0 0 .665 11.472 7.388 7.388 0 0 0 2.57 3.419 17.507 17.507 0 0 0 7.526 3.327v14.317l-97.837 1.652c-.367-1.537-.757-2.868-.964-4.245a37.721 37.721 0 0 0-4.818-12.803 3.763 3.763 0 0 1-.482-1.881c0-7.16-.252-14.318-.39-21.454-.023-1.72 0-3.441 0-5.598z" fill="#F88D2B" style="mix-blend-mode:multiply"/><path d="M357.067 295.254v19.434l-1.33-.987a40.819 40.819 0 0 0-3.901-2.432 51.144 51.144 0 0 0-17.553-4.887 70.349 70.349 0 0 0-19.87.757c-2.134.413-4.314.643-6.402 1.216a35.863 35.863 0 0 0-5.828 2.295 24.734 24.734 0 0 0-11.174 9.682 39.006 39.006 0 0 0-3.9 9.178c-.873 2.73-1.653 5.53-2.525 8.49l-61.56.39v-2.547-9.178c0-2.432-.161-4.864-.184-7.296-.023-2.432 0-4.59 0-7.021 0-5.392 0-10.807-.16-16.222.033-.264.087-.525.16-.78l134.227-.092zM56.261 337.61H11.472v-11.794a28.52 28.52 0 0 0 6.884-4.061 13.4 13.4 0 0 0 4.589-6.195c.84-1.889.955-4.021.321-5.989-.482-1.33-.734-2.753-1.262-4.06a7.618 7.618 0 0 0-7.205-5.003h-3.648v-6.08h140.285v43.71c-3.258.206-6.47.137-9.568.16a698.75 698.75 0 0 1-.757-7.526 26.364 26.364 0 0 0-3.442-10.118c-.872-1.584-1.905-3.098-2.914-4.59a19.365 19.365 0 0 0-9.178-7.135 44.788 44.788 0 0 0-12.344-3.235c-4.085-.505-8.169-.872-12.253-1.285-1.744-.184-3.488-.46-5.231-.482-4.727.15-9.405 1-13.882 2.524-2.11.62-4.199 1.354-6.31 2.065a18.08 18.08 0 0 0-6.883 4.176 35.174 35.174 0 0 0-9.178 13.767c-.413 1.193-.711 2.409-1.033 3.625l-2.202 7.526z" fill="#F88D2B" style="mix-blend-mode:multiply"/><path d="M145.722 294.703h79.94v43.205l-79.618.505v-2.616c0-2.294-.16-4.818-.184-7.227v-5.048-2.639-16.061l-.138-10.119z" fill="#F88D2B" style="mix-blend-mode:multiply"/><path d="M257.234 261.57v-24.206h44.077c.184.62.23 23.128 0 24.276l-44.077-.07z" fill="#80BC00" style="mix-blend-mode:multiply"/><path d="M146.319 297.686a78.448 78.448 0 0 1-.321-11.863c0-4.015-.207-8.03 0-12.068.206-4.039-.138-7.848 0-11.886h1.698l27.006-.298c.595.09 1.199-.086 1.652-.482.275-.275.963-.138 1.445-.138l39.006-.413 7.687-.137h1.56v37.4c-5.3.16-10.6 0-15.878 0H146.32v-.115zm206.16-38.708c1.444.028 2.884.15 4.313.367l57.752 13.767 41.622 9.981 1.675.436v14.845c-1.24.344-102.54.184-104.79-.16-.183-12.895-.366-25.882-.573-39.236z" fill="#F88D2B" style="mix-blend-mode:multiply"/><path d="M95.542 366.612a45.293 45.293 0 0 1-9.499-1.055 13.079 13.079 0 0 1-7.985-4.59 36.39 36.39 0 0 1-6.883-11.357 59.657 59.657 0 0 1-2.295-10.692c-.069-.457-.069-.92 0-1.377.102-3.9.766-7.763 1.974-11.472a19.778 19.778 0 0 1 6.883-9.178 30.746 30.746 0 0 1 15.809-5.553c3.74-.183 7.457-.413 11.197-.298a33.5 33.5 0 0 1 9.43.895c.62.183 1.354 0 2.02.16 7.135 1.492 12.275 6.012 13.468 13.033.344 1.996.666 3.992.872 6.011.045 1.035 0 2.072-.138 3.098a40.383 40.383 0 0 1-4.45 15.12 30.746 30.746 0 0 1-5.439 7.366c-1.767 1.767-3.487 3.58-5.415 5.163a20.398 20.398 0 0 1-10.6 4.107c-2.937.275-5.828.39-8.949.62zm12.987-30.058a16.29 16.29 0 0 0 0-2.592 7.71 7.71 0 0 0-.803-2.455 6.516 6.516 0 0 0-5.897-3.19 26.662 26.662 0 0 0-4.061 0c-2.708.253-5.346.734-6.677 3.442-.184.367-.574.62-.803.964a12.046 12.046 0 0 0-1.95 3.258 6.883 6.883 0 0 0 1.376 6.883 8.237 8.237 0 0 0 5.851 2.8c.666 0 1.33.229 1.996.252 1.529.148 3.07.11 4.59-.115a10.876 10.876 0 0 0 5.3-3.923 5.208 5.208 0 0 0 1.1-4.107c-.03-.405-.038-.811-.022-1.217zm248.056-2.661a22.302 22.302 0 0 1-2.96 11.908 33.247 33.247 0 0 1-3.418 5.805 19.365 19.365 0 0 1-6.356 5.576 38.088 38.088 0 0 0-4.268 3.051 38.295 38.295 0 0 1-8.122 4.176 20.65 20.65 0 0 1-11.151.964 49.95 49.95 0 0 1-14.112-4.589 14.73 14.73 0 0 1-5.437-4.75 30.815 30.815 0 0 1-5.737-14.156 51.901 51.901 0 0 1-.527-5.966c.062-1.203.215-2.4.459-3.58.112-1.816.381-3.62.803-5.391a27.12 27.12 0 0 1 5.92-10.165 19.618 19.618 0 0 1 6.263-4.268 27.717 27.717 0 0 1 4.819-1.376 52.222 52.222 0 0 1 13.468-1.56 2.868 2.868 0 0 1 1.262 0c1.651.496 3.352.811 5.071.94 2.547.643 5.163 1.101 7.64 1.95a25.515 25.515 0 0 1 8.123 4.773 28.176 28.176 0 0 1 6.884 8.558 11.128 11.128 0 0 1 1.353 5.622c0 .78.023 1.491.023 2.478zm-30.769 12.849v.183h2.157a8.168 8.168 0 0 0 6.884-3.441 14.203 14.203 0 0 0 1.858-9.362 4.727 4.727 0 0 0-1.308-2.661c-2.684-2.295-5.277-5.025-9.361-4.819a9.178 9.178 0 0 1-1.079-.137c-1.468 0-2.96-.23-4.451-.276-.415.042-.808.21-1.124.482a9.981 9.981 0 0 0-4.039 6.884 17.37 17.37 0 0 0 1.538 11.174 3.648 3.648 0 0 0 3.097 2.019c2.088 0 3.993-.046 5.828-.046z" fill="#00303C" style="mix-blend-mode:multiply"/><path d="M222.886 182.503h13.446c0 .367.137.711.16 1.055.138 4.314.298 8.65.39 12.964.138 5.025.207 10.05.321 15.075 0 3.12.23 6.264.253 9.384 0 1.767-.23 3.557-.207 5.324.023 1.766.115 3.028 0 4.589-.16 2.799 0 5.621 0 8.443 0 1.974.299 3.947.344 5.943v19.021h-12.688a7.824 7.824 0 0 0-.115-1.973 19.824 19.824 0 0 1-.206-4.589c0-1.078-.138-2.294-.16-3.258 0-2.914 0-5.805-.139-8.696 0-3.327-.32-6.654-.435-9.981-.115-3.327 0-6.08-.138-9.178 0-4.727 0-9.453-.184-14.18.047-.473.047-.95 0-1.423a39.511 39.511 0 0 1 0-6.378v-.964c0-1.4-.275-2.8-.298-4.199v-9.338c0-2.088-.184-4.176-.252-6.264-.161-.322-.115-.803-.092-1.377z" fill="#F88D2B" style="mix-blend-mode:multiply"/><path d="M142.602 337.289h-12.069c-.23-1.56-.459-3.098-.665-4.59a22.119 22.119 0 0 0-5.645-12.344c-.963-1.1-2.294-1.927-3.28-2.96-2.777-2.73-6.471-3.212-10.05-3.923a36.712 36.712 0 0 0-12.781 0c-2.294.344-4.589.321-6.883.574a26.57 26.57 0 0 0-14.203 6.011 20.077 20.077 0 0 0-6.585 10.784c-.436 1.859-.758 3.763-1.148 5.76H56.651c.413-1.607.803-3.19 1.285-4.727.206-.712.665-1.354.94-2.065.735-1.928 1.331-3.924 2.157-5.805a26.754 26.754 0 0 1 2.295-4.107 39.993 39.993 0 0 1 3.694-4.819 21.339 21.339 0 0 1 6.034-4.818 89.118 89.118 0 0 1 15.717-4.888 44.742 44.742 0 0 1 9.844-1.445 28.039 28.039 0 0 1 4.153.252 191.956 191.956 0 0 1 20.191 2.593 19.25 19.25 0 0 1 9.178 4.589 13.469 13.469 0 0 1 1.836 2.111 57.202 57.202 0 0 1 3.877 4.864 30.907 30.907 0 0 1 4.406 12.941c0 1.905.183 3.717.344 6.012zm151.505-1.492H282.22c.138-.573.23-1.032.367-1.491 1.01-3.327 1.95-6.677 3.075-9.958.596-1.698 1.583-3.235 2.294-4.91a22.945 22.945 0 0 1 5.874-8.375 31.113 31.113 0 0 1 4.98-3.534 65.003 65.003 0 0 1 6.332-3.143 15.212 15.212 0 0 1 3.488-1.01c3.808-.642 7.617-1.193 11.472-1.766.325-.069.655-.115.987-.138 4.229-.184 8.464-.138 12.688.138a35.312 35.312 0 0 1 13.17 3.877 23.404 23.404 0 0 1 7.756 7.343c1.124 1.583 2.294 3.074 3.464 4.588a15.9 15.9 0 0 1 .941 1.744 38.065 38.065 0 0 1 4.268 11.771c.344 1.813.734 3.602 1.124 5.46a5.943 5.943 0 0 1-3.12.414H354.956c-.183-1.24-.436-2.593-.596-3.993a16.474 16.474 0 0 0-2.41-7.204 34.624 34.624 0 0 0-15.441-14.157 28.75 28.75 0 0 0-7.618-1.377c-1.813-.206-3.625-.39-5.415-.482-1.516-.054-3.035 0-4.543.16a44.788 44.788 0 0 0-11.473 2.685 16.75 16.75 0 0 0-8.49 7.802c-.986 1.766-1.927 3.602-2.844 5.438a18.952 18.952 0 0 0-1.882 8.535v.918a5.392 5.392 0 0 1-.137.665z" fill="#EFB8A9" style="mix-blend-mode:multiply"/><path d="M222.565 185.256v-6.608l103.251.803c.46 1.033.895 1.974 1.285 2.96.39.987.574 1.56.94 2.524l-105.476.321z" fill="#F88D2B" style="mix-blend-mode:multiply"/><path d="M319.713 182.549h6.54c.78 0 1.055.436 1.284 1.078a831.71 831.71 0 0 0 2.524 6.884c1.285 3.419 2.593 6.883 3.855 10.256a7372.87 7372.87 0 0 1 4.933 13.193l2.753 7.503c.85 2.295 1.652 4.59 2.547 7.021.895 2.433 1.79 4.59 2.639 6.884.505 1.354.872 2.776 1.4 4.153.963 2.593 1.996 5.185 2.96 7.801.734 2.02 1.376 4.061 2.11 6.08 1.216 3.373 2.478 6.723 3.694 10.096.067.27.105.548.115.826h-6.31c-.298 0-.688-.528-.849-.918-.688-1.675-1.285-3.395-1.927-5.116l-5.37-14.547c-.986-2.662-1.904-5.37-2.89-8.031-.987-2.662-1.79-4.589-2.685-7.044a1295.445 1295.445 0 0 0-5.025-13.515c-1.698-4.497-3.28-8.696-4.979-13.032-1.376-3.534-2.5-7.136-3.877-10.647a.321.321 0 0 1 0-.16 12.046 12.046 0 0 1-1.584-4.107c0-.597-.596-1.148-.848-1.767-.253-.62-.62-1.767-1.01-2.891z" fill="#F88D2B" style="mix-blend-mode:multiply"/><path d="M11.243 327.33v-27.877c.396-.24.83-.411 1.285-.505 2.579-.23 5.177.099 7.618.964a5.3 5.3 0 0 1 3.028 2.96 14.868 14.868 0 0 1-.596 13.881 25.79 25.79 0 0 1-11.335 10.578zm446.23-1.835a18.562 18.562 0 0 1-10.05-4.956 5.415 5.415 0 0 1-1.284-2.295 22.945 22.945 0 0 1-.711-10.83 8.398 8.398 0 0 1 3.028-5.53 13.767 13.767 0 0 1 6.884-3.257h2.294l-.16 26.868z" fill="#EFB8A9" style="mix-blend-mode:multiply"/><path d="M15.327 195.811c0 22.44 0 44.65-.16 66.93l55.457.138-55.297-67.068zm93.844 8.948a15356.96 15356.96 0 0 0 15.557-64.796l53.943 12.964c-23.19 17.362-46.302 34.677-69.339 51.947l-.16-.115z" fill="#00303C" style="mix-blend-mode:multiply"/><path d="M95.772 172.407c0 21.752 0 43.251-.138 64.82H41.92l53.852-64.82z" fill="#80BC00"/><path d="M121.837 148.705c-8.145 13.767-19.87 21.981-35.61 23.45-18.815 1.767-33.867-5.553-43.894-21.568-9.43-15.03-9.178-30.77-1.216-46.67l80.72 44.788zm52.13 76.154l-75.9 11.84c-3.27-20.96 11.07-40.601 32.03-43.87 20.96-3.27 40.601 11.07 43.87 32.03z" fill="#00303C" style="mix-blend-mode:multiply"/><path d="M129.914 262.902l-55.527-.138c.038-15.333 12.499-27.732 27.832-27.694 15.333.038 27.733 12.498 27.695 27.832zm40.176-134.686l61.653 25.285c-7.022 17.07-13.997 34.096-21.064 51.327l-40.75-76.475.16-.137z" fill="#00303C" style="mix-blend-mode:multiply"/><path d="M186.174 150.93c0 21.638 0 43.091-.16 64.705-17.868-.044-32.317-14.565-32.272-32.432.044-17.868 14.565-32.317 32.432-32.272z" fill="#D0AF21"/><path d="M125.026 237.869l78.426 24.115 20.076-65.278-98.525 40.887s.023.184.023.276zm-89.668-81.844c12.298.39 22.325 5.231 29.209 15.373a33.958 33.958 0 0 1 1.79 37.813c-6.655 12.023-17.416 17.782-31.183 18.356.07-24 .115-47.68.184-71.542z" fill="#00303C" style="mix-blend-mode:multiply"/><path d="M0 224.125c0-26.172.061-52.368.184-78.586H41.14A19618.12 19618.12 0 0 1 .138 224.217L0 224.125z" fill="#00303C" style="mix-blend-mode:multiply"/><path d="M68.215 82.372l107.382 10.141c-2.295 18.494-11.106 32.65-27.213 41.852-18.902 10.926-42.564 9.179-59.656-4.406-15.121-12.137-21.73-28.107-20.513-47.587z" fill="#EFB8A9"/><path d="M142.258 32.123l87.924 36.092-29.966 73.263c-19.457-36.498-38.83-72.858-58.119-109.08l.16-.275z" fill="#F88D2B"/><path d="M79.228 44.031l76.223 9.522c-2.826 20.868-21.927 35.57-42.823 32.959-20.896-2.61-35.794-21.56-33.4-42.48z" fill="#00303C" style="mix-blend-mode:multiply"/><path d="M83.817 0l67.252 8.42c-2.295 15.81-8.559 27.948-19.16 35.84-12.55 9.385-27.372 7.916-37.4-3.625C85.54 30.287 82.12 16.658 83.818 0z" fill="#00303C" style="mix-blend-mode:multiply"/></g></svg>