<?xml version="1.0" standalone="no"?>
<!DOCTYPE svg PUBLIC "-//W3C//DTD SVG 20010904//EN"
 "http://www.w3.org/TR/2001/REC-SVG-20010904/DTD/svg10.dtd">
<svg version="1.0" xmlns="http://www.w3.org/2000/svg"
 width="1024.000000pt" height="1024.000000pt" viewBox="0 0 1024.000000 1024.000000"
 preserveAspectRatio="xMidYMid meet">

<g transform="translate(0.000000,1024.000000) scale(0.100000,-0.100000)"
fill="#000000" stroke="none">
<path d="M1 7838 c1 -2130 3 -2385 15 -2248 18 195 53 418 98 630 177 824 566
1597 1135 2260 130 151 446 461 591 580 490 400 991 685 1561 890 375 134 836
236 1219 269 69 6 141 13 160 15 19 1 -1048 4 -2372 4 l-2408 2 1 -2402z"/>
<path d="M5460 10234 c19 -2 91 -9 160 -15 487 -42 1036 -181 1503 -380 599
-256 1115 -602 1580 -1059 284 -279 468 -499 678 -813 482 -723 764 -1521 844
-2392 11 -118 13 237 14 2263 l1 2402 -2407 -2 c-1325 0 -2392 -3 -2373 -4z"/>
<path d="M5634 9036 c-28 -13 -65 -41 -82 -62 -65 -78 -157 -369 -182 -578
-16 -121 -7 -392 15 -491 24 -110 63 -226 105 -311 21 -43 37 -80 35 -82 -1
-1 -31 2 -66 7 -322 51 -627 -5 -924 -170 -253 -140 -545 -417 -807 -764 -350
-466 -944 -1475 -1198 -2036 -78 -171 -232 -592 -333 -904 -66 -206 -139 -519
-173 -745 -21 -143 -24 -415 -5 -520 73 -409 323 -680 774 -841 320 -114 522
-117 912 -13 488 130 917 344 1355 677 449 341 703 602 1290 1326 754 929
1019 1397 1081 1905 24 197 -9 452 -80 631 -17 42 -31 78 -31 80 0 2 46 1 103
-2 225 -12 500 53 920 219 190 75 249 111 284 173 72 128 31 227 -177 436
-222 222 -488 364 -771 410 l-66 12 48 78 c141 228 256 517 350 887 53 208 58
273 30 338 -29 64 -55 92 -116 120 -70 33 -117 30 -263 -17 -409 -133 -734
-316 -985 -558 -48 -46 -89 -82 -91 -80 -2 2 -13 35 -25 73 -45 140 -145 306
-263 433 -146 157 -335 314 -446 370 -62 32 -149 31 -218 -1z m-181 -1838 c59
-13 67 -28 16 -28 -15 0 -71 -9 -124 -20 -716 -147 -1429 -805 -1998 -1840
-44 -80 -125 -226 -180 -325 -114 -203 -257 -495 -342 -695 -31 -74 -99 -227
-149 -340 -51 -113 -110 -249 -131 -302 -21 -54 -40 -96 -42 -94 -4 4 116 351
196 570 160 434 523 1111 976 1821 373 586 695 944 1010 1125 117 66 278 124
400 144 52 8 308 -3 368 -16z m163 -268 c82 -40 113 -131 72 -209 -39 -76 -62
-86 -186 -83 -91 2 -120 -1 -191 -23 -102 -30 -113 -31 -167 -5 -69 34 -101
104 -82 178 22 89 91 124 318 166 58 11 192 -3 236 -24z m-820 -301 c52 -13
97 -60 115 -119 21 -68 -5 -114 -119 -213 -105 -92 -234 -223 -352 -357 -89
-102 -104 -115 -152 -128 -114 -31 -222 78 -188 190 30 101 518 599 614 627
17 5 32 10 34 10 2 1 23 -4 48 -10z"/>
<path d="M1 2403 l-1 -2403 2408 2 c1324 0 2391 3 2372 4 -19 2 -91 9 -160 15
-792 68 -1617 358 -2300 806 -305 201 -524 378 -783 633 -285 279 -468 500
-678 813 -482 722 -764 1522 -844 2392 -11 118 -13 -237 -14 -2262z"/>
<path d="M10226 4693 c-11 -165 -43 -388 -87 -607 -172 -853 -563 -1645 -1148
-2326 -211 -246 -555 -563 -831 -767 -736 -544 -1654 -895 -2540 -972 -69 -6
-141 -13 -160 -15 -19 -1 1048 -4 2373 -4 l2407 -2 0 2400 c0 1320 -2 2400 -4
2400 -1 0 -6 -48 -10 -107z"/>
</g>
</svg>
