<svg viewBox="0 0 371 505" xmlns="http://www.w3.org/2000/svg"><title>hp_illo_mo3@1x</title><g fill="none" fill-rule="evenodd"><path fill="#00303C" d="M8.31592288 238.785785L76.0312949 238.785785 61.8560247 464.865309 14.064646 466.87967"/><path d="M50.82 291.848c-.02.286-.02.573 0 .859.367 2.848.797 5.696 1.108 8.553.367 3.09.662 6.21.996 9.316 0 .12.072.305 0 .369-.613.706-.31 1.605-.422 2.367-.319 2.046-.486 4.116-.797 6.154-.183 1.188-.502 2.36-.797 3.667-.797 0-1.498 0-2.35-.04-.296-7.904-.59-15.71-.877-23.526h-.28c-.286 2.535-.31 5.111-.485 7.67-.176 2.56-.271 5.16-.415 7.736-.143 2.575-.295 5.231-.462 8.024h-2.917a226.875 226.875 0 0 0 1.22-23.84c-.47 0-.861-.047-1.38-.088-.629 7.96-1.25 15.815-1.896 23.831l-3.849-.088c-.143-2.776.486-5.384.582-8.024.096-2.64.295-5.24.438-7.855.144-2.616.287-5.32.446-8.136-.868-.048-1.593-.089-2.526-.16-.087 1.435-.167 2.791-.255 4.131a33.243 33.243 0 0 0-.215 4.943 32.692 32.692 0 0 1-.382 7.013c-.287 2.64-.797 5.248-1.228 7.968l-3.642-.16a8.452 8.452 0 0 1-.693-3.957 92.428 92.428 0 0 1 .35-11.313c.447-4.325.91-8.666 1.395-12.99.295-2.64.606-5.28 1.012-7.904.247-1.605.702-3.146 1.092-4.815l20.624.803c.367 1.452.75 2.848 1.092 4.26a1576.852 1576.852 0 0 1 3.817 15.15 8.885 8.885 0 0 1 .072 4.084c-.247 1.067-1.594 2.166-2.542 1.861a3.887 3.887 0 0 1-1.594-1.34 12.525 12.525 0 0 1-2.39-5.954c-.391-2.463-.638-4.942-.941-7.414-.008-.601.072-1.267-.909-1.155z" fill="#FFF"/><path fill="#F88D2B" d="M277.989422 239.746695L325.508981 238.785785 323.357121 465.487165 287.904217 466.87967"/><path d="M286.305 59.4h33.786v1.8c.182 18.272.366 36.547.553 54.825.413 39.994.84 79.987 1.28 119.98.108 8.416-.214 16.798-.652 25.189-.347 6.671-.644 13.343-.966 20.015 0 .487-.067.965-.108 1.532h-31.283L286.305 59.4z" fill="#FFF"/><path d="M165.13 174.077v-37.924c.506 0 .938-.073 1.37-.073 5.215-.064 10.43-.16 15.645-.176H202.2c7.774 0 15.545-.035 23.314-.104 3.74 0 7.489-.064 11.237-.089h8.833c1.133 0 2.266-.168 3.39-.176 8.692-.048 17.363-.083 26.011-.104h1.817v45.143l-111.67-6.497z" fill="#80BC00" style="mix-blend-mode:multiply"/><path d="M288.967 59.487c.7 61.073 1.396 122.027 2.09 182.863h-11.374a3.824 3.824 0 0 1-.649-2.437c-.096-2.103-.304-4.198-.44-6.31-.072-.975-.064-1.957-.128-2.94-.02-2.5-.194-4.995-.521-7.472-.585-3.167-.569-6.383-1.01-9.559a70.922 70.922 0 0 1-.88-9.624c0-2.907-.801-5.685-.721-8.609a17.44 17.44 0 0 0-.257-2.477c-.096-.86-.168-1.73-.24-2.59-.416-4.873-.889-9.673-1.225-14.513-.521-7.407-.97-14.83-1.402-22.245a233.037 233.037 0 0 1-.337-8.844c-.117-6.595-.21-13.187-.28-19.776 0-.699-.096-1.34-.76-1.624-1.547-.61-2.404-2.039-3.741-2.949a11.758 11.758 0 0 1-2.972-3.175c-1.057-1.568-2.403-2.932-3.452-4.491a23.02 23.02 0 0 1-2.211-4.11 45.77 45.77 0 0 1-1.554-4.873 7.247 7.247 0 0 1-.272-1.86c0-1.721-.057-3.443 0-5.173.093-2.973.49-5.93 1.185-8.82.46-1.689 1.018-3.349 1.674-4.97a5.227 5.227 0 0 1 .977-1.624c6.448-6.96 12.928-13.888 19.36-20.856a2.913 2.913 0 0 1 2.403-1.024c2.187.163 4.374.082 6.737.082zm36.475 182.863h-7.284c-.105-.082-.154-.106-.186-.139a.285.285 0 0 1-.065-.13 3.521 3.521 0 0 1-.073-.577l-1.829-181.576c.02-.18.058-.357.113-.529h10.579v1.725l-.728 97.001c-.184 26.22-.362 52.444-.535 78.67 0 1.57.09 3.14.122 4.717-.02.281-.058.561-.114.838z" fill="#80BC00" style="mix-blend-mode:multiply"/><path d="M319.569 467.3v35.275h-16.823c-1.684-6.81-1.12-13.725-1.684-20.706-.352.435-.72.82-1.047 1.312-1.816 2.527-4.253 4.414-6.543 6.407-5.913 5.046-12.61 8.852-19.628 12.191-1.635.82-3.64.919-5.397 1.55a8.154 8.154 0 0 1-4.907 0 5.806 5.806 0 0 1-3.59-2.46 11.708 11.708 0 0 1-2.053-4.726 4.6 4.6 0 0 1 1.913-4.774c6.453-4.8 12.897-9.59 19.702-13.864a158.644 158.644 0 0 0 14.304-9.902 2.996 2.996 0 0 1 2.036-.722c7.63.14 15.26.246 22.9.36.204-.016.44.025.817.058zm-298.185-3.524v39.857H42.4c2.114-7.708 1.399-15.52 2.106-23.405.44.49.911.973 1.31 1.487 2.277 2.853 5.31 4.983 8.222 7.234 7.401 5.746 15.77 10.006 24.489 13.784 2.082.892 4.546 1.045 6.742 1.752a11.13 11.13 0 0 0 6.157-.048 7.202 7.202 0 0 0 4.481-2.733 12.636 12.636 0 0 0 2.587-5.337 5.017 5.017 0 0 0-2.44-5.4c-8.06-5.418-16.12-10.827-24.627-15.666a201.17 201.17 0 0 1-17.893-11.18 3.993 3.993 0 0 0-2.53-.803c-9.54.16-19.08.28-28.62.41-.236-.033-.537.008-1 .048z" fill="#00303C" style="mix-blend-mode:multiply"/><path d="M84.347 38.016H67.254c-.25-5.568-.476-11.064-.727-16.569l.267-.063c.283.223.573.445.808.684a1253.93 1253.93 0 0 1 12.537 11.47c1.357 1.272 2.552 2.648 3.829 3.977.114.112.241.21.38.294v.207z" fill="#EFB8A9"/><path d="M22.572 47.58c1.321-.813 2.462-1.471 3.57-2.17.52-.301 1.02-.638 1.493-1.008a49.785 49.785 0 0 0 4.054-3.324 26.34 26.34 0 0 0 2.594-3.25 15.209 15.209 0 0 0 2.733-8.583c.202-3.8-.548-7.592-2.183-11.036a44.377 44.377 0 0 0-2.462-3.999c.242.044.481.106.714.187 1.574.587 3.241.892 4.924.902 1.676.184 3.372.102 5.022-.243 2.462-.626 4.982-.886 7.386-1.902a9.387 9.387 0 0 1 2.273-.61 3.06 3.06 0 0 0 1.445-.61 40.91 40.91 0 0 1 2.388-1.625 12.466 12.466 0 0 0 5.326-6.566l.18-.179c.239.276.51.536.723.813a27.107 27.107 0 0 1 5.014 11.508A61.705 61.705 0 0 1 68.9 26.019a57.444 57.444 0 0 1-1.322 13.003 47.697 47.697 0 0 1-2.01 6.933 57.605 57.605 0 0 1-3.505 8.127c-.82 1.495-1.756 2.917-2.601 4.396-.314.6-.96.955-1.641.902H29.736a1.431 1.431 0 0 1-1.534-.812c-1.839-3.674-3.718-7.298-5.63-10.988z" fill="#EFB8A9"/><path d="M26.136 13.793c.33-.557.708-1.086 1.13-1.584 1.65-1.584 3.233-3.208 4.948-4.752a24.605 24.605 0 0 1 5.007-3.327 30.278 30.278 0 0 1 3.884-1.924 36.72 36.72 0 0 1 8.949-2.1 20.093 20.093 0 0 1 10.532 1.76c.949.427 1.823.965 2.755 1.401.33.097.597.332.727.64.13.307.108.654-.059.944a10.584 10.584 0 0 1-2.606 3.667 21.968 21.968 0 0 1-4.677 3.359 9.813 9.813 0 0 1-1.55.728c-3.3 1.085-6.598 2.281-9.947 3.168a22.238 22.238 0 0 1-11.101.294 57.459 57.459 0 0 1-6.805-1.814l-1.187-.46z" fill="#00303C" style="mix-blend-mode:multiply"/><path d="M26.5 10.692c1.649.873 3.201 1.714 4.801 2.507a13.2 13.2 0 0 1 4.61 4.23 17.438 17.438 0 0 1 3.12 8.5 16.627 16.627 0 0 1-1.097 8.765 18.373 18.373 0 0 1-6.24 7.594 99.976 99.976 0 0 1-5.377 3.71 27.597 27.597 0 0 1-3.113 1.522 24.156 24.156 0 0 1-.992-2.54c-.544-1.963-1.032-3.982-1.384-5.968a37 37 0 0 1-.464-4.198 32.823 32.823 0 0 1-.152-4.342c.168-2.548 0-5.12.656-7.635.288-1.17.6-2.323 1-3.453a33.607 33.607 0 0 1 4.089-8.011c.167-.238.349-.465.544-.681z" fill="#00303C" style="mix-blend-mode:multiply"/><path d="M49.896 21.967c.309-.278.642-.531.996-.756a55.207 55.207 0 0 1 4.964-2.411 13.239 13.239 0 0 1 5.858-.953 8.842 8.842 0 0 1 3.043.847c1.098.61 1.77 1.734 1.763 2.948.11 1.761-1.083 2.366-2.442 2.721-3.057.69-6.23.77-9.32.235a21.51 21.51 0 0 1-3.85-1.036 1.222 1.222 0 0 1-.633-.552 5.02 5.02 0 0 1-.38-1.043z" fill="#FFF"/><path d="M53.46 41.58h13.067c-.059.66-.101 1.25-.16 1.91h-9.304c.186.366.253.644.414.756 1.514.955 2.783 2.332 4.466 2.993.83.283 1.677.52 2.538.708l-.846 1.934c-1.989.12-3.946-.51-5.439-1.751a7.485 7.485 0 0 0-1.235-.931 7.654 7.654 0 0 1-3.155-3.375 7.697 7.697 0 0 1-.346-2.244zm6.698-23.728h-.666c-.167 0-.365-.137-.5.154 0 .051-.096 0-.151 0-.505.033-.952.361-1.167.855-.269.337-.452.744-.531 1.18 0 .325-.096.633-.103.958a9.28 9.28 0 0 0 .206 2.566c.063.293.15.58.262.855.159.393.347.77.563 1.13.205.294.524.47.865.478a6.834 6.834 0 0 0 1.587.094 1.659 1.659 0 0 0 1.381-.478c.095-.112.23-.146.333-.249.525-.557.787-1.34.714-2.13v-1.29a7.552 7.552 0 0 0-.468-2.746 2.333 2.333 0 0 0-.484-.684 1.55 1.55 0 0 0-1.222-.65c-.207 0-.414-.014-.619-.043z" fill="#00303C"/><path d="M326.697 45.882c-4.826-3.063-8.638-6.983-10.634-12.665a23.178 23.178 0 0 1 .524-16.835c-.482.1-.958.23-1.424.388a17.786 17.786 0 0 1-10.355.808c-2.98-.64-5.81-1.83-8.344-3.508a13.13 13.13 0 0 1-4.278-4.946l-.417-.808a7.68 7.68 0 0 0-.818.582c-2.904 2.724-4.859 6.199-6.634 9.78-.308.829-.513 1.692-.613 2.57-.344 1.616-.753 3.273-.998 4.93-.638 4.291-1.432 8.559-1.055 12.972a109.372 109.372 0 0 0 2.364 13.448c.304 1.146.75 2.25 1.325 3.29.769 1.616 1.636 3.095 2.454 4.696H318.673a2.155 2.155 0 0 0 2.085-1.237 63.408 63.408 0 0 0 4.908-10.337c.491-.922.687-2.005 1.031-3.128z" fill="#8B5E3C" style="mix-blend-mode:multiply"/><path d="M318.117 14.256a14.545 14.545 0 0 0-5.388 8.566c-.698 3.68-.05 7.185 1.135 10.749 1.185 3.563 3.463 6.4 6.035 9.095a32.59 32.59 0 0 0 6.524 4.854c3.472-9.112.782-24.185-8.306-33.264z" fill="#00303C" style="mix-blend-mode:multiply"/><path d="M288.681 8.677c1.39 2.834 2.923 5.045 5.08 6.425 1.283.84 2.616 1.547 3.94 2.304.267.151.598.202.808.437 1.501 1.884 3.504 1.775 5.402 2.128 2.998.479 6.063.19 8.93-.841a12.21 12.21 0 0 0 5.54-3.574c-2.56-3.625-5.531-6.366-9.254-7.77a21.158 21.158 0 0 0-7.865-1.49 12.539 12.539 0 0 1-1.728-.285 18.216 18.216 0 0 0-8.075 1.118c-.965.435-1.895.953-2.778 1.548z" fill="#00303C"/><path d="M269.816 41.58l11.99-1.327c.324-4.747.626-9.37.935-13.992l-.27-.125-12.798 15.152.143.292z" fill="#8B5E3C"/><path d="M291.862 43.956l-9.12.403c.107.859.2 1.571.314 2.421h6.378c-1.537 2.301-3.696 2.473-5.648 3.606.223 1.013.438 1.983.684 3.074 1.475-.636 2.905-1.142 4.265-1.88 1.06-.576 1.774-1.898 2.474-3.16.26-.472.468-.996.699-1.502a3.226 3.226 0 0 0-.046-2.962z" fill="#00303C"/><path d="M292.853 29.648c2.26 0 4.566-1.394 4.078-3.38a2.392 2.392 0 0 0-1.299-1.334 8.1 8.1 0 0 0-3.016-.958 15.966 15.966 0 0 0-6.07.162 3.154 3.154 0 0 0-1.874 1.13c-.788.992-1 1.976-.386 3.02.421.674 1.096 1.11 1.842 1.19.627.125 1.261.2 1.898.222 1.606 0 3.22-.035 4.827-.052z" fill="#FFF"/><path d="M287.528 26.665c.017.158.017.317 0 .475-.23.877.724 2.045 1.646 2.415.155.068.323.103.493.104.445 0 .889.04 1.333.04a2.072 2.072 0 0 0 1.827-1.07 4.621 4.621 0 0 0 .543-3.05.928.928 0 0 0-.313-.572 8.042 8.042 0 0 0-1.234-.974 3.996 3.996 0 0 0-3.06.065 2.41 2.41 0 0 0-1.235 1.9v.667z" fill="#00303C"/><path d="M370.578 35.052l-1.532.783c-1.5.736-2.984 1.51-4.508 2.207-.804.346-1.63.644-2.472.892a37.132 37.132 0 0 1-6.486 1.644c-1.135.133-2.245.446-3.38.587-1.386.18-2.78.313-4.175.383a47.026 47.026 0 0 1-10.174-.735c-.81-.126-1.573-.29-2.367-.368a23.218 23.218 0 0 1-5.432-1.566c-.859-.297-1.702-.65-2.561-.939a14.355 14.355 0 0 1-3.17-1.628c.073-.994.154-1.988.235-2.974.049-.61.13-1.22.17-1.831.007-.437.271-.832.681-1.018a36.008 36.008 0 0 1 7.361-2.974c1.64-.373 3.298-.66 4.97-.861 4.15-.665 8.341-.532 12.524-.446 1.088.055 2.171.178 3.243.368 1.557.242 3.121.462 4.637.782 1.35.323 2.676.728 3.972 1.214a49.105 49.105 0 0 1 7.037 3.35c1.15.539 1.741 1.79 1.41 2.981-.001.05.004.1.017.15z" fill="#00303C" style="mix-blend-mode:multiply"/><path d="M156.62 148.415a5.867 5.867 0 0 1-.86-.04c-2.827-.537-5.623-1.123-8.476-1.627-3.077-.553-6.17-1.041-9.256-1.561-.128 0-.297-.098-.37 0-.739.577-1.606.211-2.41.284-2.065.195-4.138.244-6.203.431-1.197.106-2.41.366-3.712.586 0 .813-.048 1.529-.088 2.399l23.461 2.285v.277c-2.563.146-5.134 0-7.705 0h-15.796c-.048.975-.089 1.886-.137 2.976a218.889 218.889 0 0 1 23.895.17v1.408c-7.994.162-15.876.341-23.935.512-.04 1.334-.088 2.586-.136 3.936 2.771.31 5.415-.179 8.034-.122 2.62.057 5.255 0 7.882 0h8.155v2.578h-4.09a31.254 31.254 0 0 1-4.94-.065 32.405 32.405 0 0 0-7.047 0c-2.651.138-5.287.504-8.035.813-.04 1.334-.08 2.538-.112 3.733a8.457 8.457 0 0 0 3.92.944c3.767.334 7.55.438 11.33.309 4.355-.195 8.71-.415 13.064-.659 2.66-.146 5.32-.3 7.963-.553 1.606-.17 3.213-.537 4.869-.813.152-7.076.289-14.02.433-21.055-1.43-.472-2.804-.944-4.194-1.375a1127.88 1127.88 0 0 0-14.896-4.765 8.586 8.586 0 0 0-4.082-.31c-1.092.188-2.257 1.464-2.008 2.48a3.857 3.857 0 0 0 1.245 1.627 12.357 12.357 0 0 0 5.81 2.766c2.41.544 4.9.935 7.359 1.39.57.098 1.237.049 1.069 1.041z" fill="#754C29" style="mix-blend-mode:multiply"/><path d="M295.698 289.999c.02.286.02.574 0 .86-.543 2.828-1.127 5.624-1.621 8.476-.56 3.078-1.046 6.171-1.557 9.264 0 .12-.097.29 0 .362.576.747.22 1.607.292 2.41.195 2.065.243 4.138.43 6.203.105 1.197.365 2.41.583 3.712.811 0 1.524.048 2.384.089.81-7.882 1.524-15.668 2.277-23.454h.284c.146 2.563 0 5.134.04 7.706.041 2.57 0 5.174 0 7.761v8.035l2.96.136a221.674 221.674 0 0 1 .17-23.895h1.41c.162 7.995.34 15.885.51 23.936l3.924.136c.308-2.772-.178-5.415-.122-8.035.057-2.619 0-5.254 0-7.882v-8.155h2.578v4.146c.106 1.65.081 3.304-.073 4.95a32.957 32.957 0 0 0 0 7.038c.146 2.651.503 5.287.81 8.035l3.73.112a8.504 8.504 0 0 0 .94-3.92c.335-3.768.435-7.551.3-11.33-.195-4.355-.414-8.718-.649-13.064-.146-2.66-.308-5.32-.559-7.963-.162-1.607-.527-3.214-.81-4.869l-20.987-.434c-.462 1.43-.932 2.805-1.37 4.195a559.387 559.387 0 0 0-4.84 14.832 8.676 8.676 0 0 0-.315 4.073c.186 1.093 1.459 2.258 2.472 2.009a3.847 3.847 0 0 0 1.662-1.246 12.374 12.374 0 0 0 2.756-5.809c.543-2.41.94-4.9 1.386-7.36.073-.554.024-1.229 1.005-1.06z" fill="#FFF"/><path d="M295.698 290.023c.02.284.02.568 0 .852-.543 2.828-1.127 5.624-1.621 8.484-.56 3.078-1.046 6.171-1.557 9.256 0 .121-.097.298 0 .37.576.74.22 1.607.292 2.41.195 2.065.243 4.146.43 6.203.105 1.197.364 2.41.583 3.72.81 0 1.524.049 2.383.089.811-7.882 1.524-15.668 2.278-23.462h.284c.146 2.563 0 5.126.04 7.706.041 2.579 0 5.166 0 7.753v8.035l2.96.144a221.831 221.831 0 0 1 .17-23.903h1.41c.162 8.035.34 15.877.51 23.936l3.924.128c.308-2.764-.178-5.407-.122-8.035.057-2.627 0-5.254 0-7.89v-8.147h2.578v4.138c.106 1.65.081 3.304-.073 4.95a32.957 32.957 0 0 0 0 7.038c.146 2.651.503 5.295.81 8.035 1.338 0 2.538.072 3.73.112a8.528 8.528 0 0 0 .94-3.92c.335-3.77.435-7.556.3-11.338a1407.2 1407.2 0 0 0-.649-13.056c-.146-2.668-.308-5.32-.559-7.97-.162-1.608-.527-3.215-.81-4.862l-20.987-.434c-.462 1.43-.932 2.805-1.37 4.195a573.623 573.623 0 0 0-4.84 14.848 8.716 8.716 0 0 0-.316 4.081c.187 1.085 1.46 2.25 2.473 2a3.831 3.831 0 0 0 1.661-1.236 12.438 12.438 0 0 0 2.757-5.818c.543-2.41.94-4.893 1.386-7.36.073-.554.024-1.22 1.005-1.052z" fill="#8B5E3C"/><path d="M286.305 59.4h33.786v1.8c.182 18.273.366 36.547.553 54.821.413 39.997.84 79.993 1.28 119.99.108 8.407-.214 16.79-.652 25.181-.347 6.672-.644 13.353-.966 20.025 0 .479-.067.957-.108 1.524h-31.283L286.305 59.4z" fill="#80BC00" style="mix-blend-mode:multiply"/><path fill="#F88D2B" style="mix-blend-mode:multiply" d="M57.5987763 59.3994491L55.8354822 239.973774 78.1407473 239.973774 85.5352067 59.5375339"/><path fill="#F88D2B" style="mix-blend-mode:multiply" d="M6.05544384 238.785785L27.8929913 238.484516 28.5117356 58.2114601 0 58.7488595"/><path d="M19.008 466.88H64.15" fill="#F88D2B" fill-rule="nonzero"/><path fill="#FFF" d="M27.3237466 59.3994491L61.7754271 59.3994491 59.8832877 283.929367 28.1838099 283.929367"/><path fill="#F88D2B" style="mix-blend-mode:multiply" d="M20.1958127 59.3994491L67.715372 59.3994491 65.1060101 283.929367 21.3789395 283.929367"/><path d="M50.838 291.818a5.218 5.218 0 0 0 0 .86c.367 2.85.797 5.702 1.108 8.56.367 3.093.662 6.217.997 9.326 0 .12.072.305 0 .369-.614.707-.311 1.606-.423 2.37-.31 2.047-.486 4.12-.797 6.16-.176 1.188-.502 2.36-.798 3.67-.797 0-1.499 0-2.392-.04-.295-7.911-.59-15.726-.877-23.549h-.215c-.287 2.538-.31 5.116-.478 7.678-.168 2.562-.28 5.165-.423 7.743-.143 2.578-.295 5.236-.462 8.031h-2.919a227.188 227.188 0 0 0 1.22-23.861c-.462 0-.86-.049-1.38-.089-.63 7.968-1.251 15.83-1.889 23.854l-3.859-.088c-.144-2.78.486-5.39.582-8.032.096-2.642.295-5.245.439-7.863.143-2.618.287-5.325.446-8.144-.861-.048-1.595-.088-2.528-.16-.087 1.437-.167 2.795-.247 4.136a32.245 32.245 0 0 0-.215 4.947c.117 2.347-.011 4.7-.383 7.02-.295 2.642-.797 5.253-1.236 7.975l-3.66-.104a8.463 8.463 0 0 1-.71-3.976c-.11-3.778.008-7.56.352-11.324.446-4.33.909-8.674 1.395-13.004.303-2.642.606-5.284 1.013-7.91.247-1.607.701-3.149 1.092-4.82l20.636.804c.374 1.453.749 2.85 1.1 4.264 1.276 5.05 2.543 10.099 3.803 15.148a8.962 8.962 0 0 1 .064 4.088c-.247 1.068-1.595 2.169-2.544 1.863a3.946 3.946 0 0 1-1.594-1.34 12.62 12.62 0 0 1-2.392-5.96c-.391-2.466-.638-4.948-.933-7.422 0-.626.08-1.293-.893-1.18z" fill="#EFB8A9" style="mix-blend-mode:multiply"/></g></svg>